<svg width="25" height="24" viewBox="0 0 25 24" fill="none" xmlns="http://www.w3.org/2000/svg">
    <path
        d="M12.3247 4.51367C10.601 4.51394 8.93064 5.11186 7.59832 6.20558C6.26599 7.29929 5.35409 8.82113 5.018 10.5118C4.68192 12.2025 4.94243 13.9574 5.75516 15.4775C6.56788 16.9976 7.88253 18.1889 9.47512 18.8484C11.0677 19.508 12.8397 19.5949 14.4892 19.0944C16.1387 18.5939 17.5636 17.537 18.5212 16.1037C19.4788 14.6704 19.9098 12.9494 19.7408 11.234C19.5718 9.51854 18.8132 7.91477 17.5943 6.69591C16.9024 6.00387 16.0808 5.45496 15.1766 5.08052C14.2725 4.70608 13.3034 4.51347 12.3247 4.51367ZM19.0337 13.3253C18.7076 14.942 17.8114 16.3878 16.5083 17.3989C15.2053 18.41 13.5823 18.9192 11.9352 18.8336C10.2881 18.748 8.7266 18.0733 7.53542 16.9325C6.34423 15.7917 5.60268 14.2609 5.44595 12.619C5.28923 10.9772 5.72777 9.33367 6.68163 7.98815C7.63548 6.64263 9.04112 5.68471 10.6423 5.28904C12.2434 4.89336 13.9335 5.08629 15.4043 5.83263C16.875 6.57898 18.0286 7.82904 18.6547 9.35491C19.1713 10.6117 19.3032 11.9935 19.0337 13.3253Z"
        fill="#BFBFBF" />
    <path
        d="M19.375 4.90671C17.7414 3.26717 15.5897 2.24502 13.2868 2.01456C10.9838 1.7841 8.67226 2.35958 6.7462 3.6429C4.82013 4.92621 3.39884 6.83788 2.72467 9.05195C2.0505 11.266 2.16519 13.6454 3.04919 15.7844C3.93319 17.9233 5.53177 19.6894 7.57233 20.7815C9.6129 21.8736 11.9691 22.2241 14.2392 21.7732C16.5093 21.3223 18.5527 20.098 20.021 18.3089C21.4893 16.5198 22.2915 14.2769 22.291 11.9624C22.2905 9.31741 21.2419 6.78035 19.375 4.90671ZM18.8024 18.1866C17.2725 19.7394 15.2353 20.6905 13.0625 20.8665C10.8898 21.0425 8.7261 20.4316 6.9662 19.1452C5.2063 17.8589 3.96742 15.9828 3.47552 13.8591C2.98362 11.7354 3.27148 9.50566 4.28659 7.57653C5.3017 5.6474 6.97643 4.14743 9.00532 3.35019C11.0342 2.55295 13.2821 2.51157 15.3389 3.23359C17.3958 3.95561 19.1246 5.39293 20.21 7.28339C21.2955 9.17385 21.6652 11.3915 21.2518 13.5318C20.9121 15.291 20.06 16.9104 18.8024 18.1866Z"
        fill="#BFBFBF" />
    <path
        d="M12.3236 7.05859C11.1882 7.05864 10.0879 7.45238 9.21018 8.17272C8.33251 8.89307 7.73176 9.89545 7.51029 11.0091C7.28882 12.1227 7.46033 13.2787 7.99561 14.28C8.53088 15.2814 9.3968 16.0661 10.4458 16.5006C11.4948 16.9351 12.6621 16.9924 13.7486 16.6627C14.8351 16.3331 15.7737 15.6369 16.4045 14.6928C17.0353 13.7487 17.3192 12.6151 17.2079 11.4852C17.0966 10.3552 16.5969 9.2988 15.794 8.49595C15.3383 8.04009 14.7973 7.67851 14.2018 7.43188C13.6064 7.18525 12.9681 7.0584 12.3236 7.05859ZM16.7808 12.8554C16.5687 13.9235 15.9797 14.8798 15.1214 15.55C14.263 16.2202 13.1924 16.5596 12.1047 16.5063C11.017 16.453 9.98471 16.0106 9.19597 15.2597C8.40723 14.5089 7.91461 13.4996 7.8079 12.4158C7.70119 11.3321 7.98751 10.246 8.61466 9.35577C9.24181 8.4655 10.168 7.83026 11.2244 7.56586C12.2809 7.30147 13.3971 7.42553 14.3697 7.91543C15.3423 8.40532 16.1064 9.22843 16.5228 10.2347C16.866 11.0635 16.9558 11.9755 16.7808 12.8554Z"
        fill="#BFBFBF" />
    <path
        d="M12.3246 9.57251C11.77 9.56459 11.2298 9.74949 10.7964 10.0956C10.363 10.4418 10.0633 10.9277 9.9484 11.4703C9.83352 12.013 9.91062 12.5786 10.1665 13.0707C10.4225 13.5628 10.8413 13.9508 11.3516 14.1683C11.8618 14.3858 12.4317 14.4194 12.964 14.2634C13.4962 14.1073 13.9578 13.7712 14.2697 13.3126C14.5817 12.854 14.7248 12.3013 14.6744 11.7489C14.6241 11.1966 14.3835 10.6788 13.9938 10.2841C13.5524 9.83698 12.9528 9.58138 12.3246 9.57251ZM14.4927 12.3948C14.3888 12.9137 14.1019 13.378 13.6843 13.7031C13.2668 14.0282 12.7463 14.1925 12.2177 14.166C11.6892 14.1395 11.1878 13.924 10.8048 13.5587C10.4218 13.1935 10.1828 12.7028 10.1313 12.1762C10.0798 11.6495 10.2192 11.1218 10.5242 10.6893C10.8291 10.2568 11.2793 9.94821 11.7927 9.81982C12.3061 9.69143 12.8486 9.75175 13.3212 9.9898C13.7939 10.2278 14.1653 10.6278 14.3677 11.1167C14.5373 11.521 14.5826 11.9667 14.4978 12.3968L14.4927 12.3948Z"
        fill="#BFBFBF" />
</svg>
    