<svg width="20" height="20" viewBox="0 0 20 20" fill="none" xmlns="http://www.w3.org/2000/svg">
    <path d="M15.4173 16.25H12.084" stroke="#0D0D0D" stroke-width="1.5" stroke-linecap="round"
        stroke-linejoin="round" />
    <path d="M13.75 17.9168V14.5835" stroke="#0D0D0D" stroke-width="1.5" stroke-linecap="round"
        stroke-linejoin="round" />
    <path
        d="M10.1341 9.05817C10.0508 9.04984 9.95081 9.04984 9.85915 9.05817C7.87581 8.9915 6.30081 7.3665 6.30081 5.3665C6.29248 3.32484 7.95081 1.6665 9.99248 1.6665C12.0341 1.6665 13.6925 3.32484 13.6925 5.3665C13.6925 7.3665 12.1091 8.9915 10.1341 9.05817Z"
        stroke="#292D32" stroke-width="1.5" stroke-linecap="round" stroke-linejoin="round" />
    <path
        d="M9.99219 18.1751C8.47552 18.1751 6.96719 17.7917 5.81719 17.0251C3.80052 15.6751 3.80052 13.4751 5.81719 12.1334C8.10885 10.6001 11.8672 10.6001 14.1589 12.1334"
        stroke="#292D32" stroke-width="1.5" stroke-linecap="round" stroke-linejoin="round" />
</svg>
    