<svg width="18" height="21" viewBox="0 0 18 21" fill="none" xmlns="http://www.w3.org/2000/svg">
    <path
        d="M0.908203 18.381C0.908203 20.0491 1.7303 20.8872 3.38247 20.8872H10.8851C12.5373 20.8872 13.3594 20.0411 13.3594 18.381V16.9044H14.7561C16.4003 16.9044 17.2304 16.0583 17.2304 14.3982V7.9172C17.2304 6.93547 17.0309 6.31291 16.4323 5.69834L12.4016 1.60382C11.8349 1.02117 11.1645 0.805664 10.3104 0.805664H7.25351C5.60932 0.805664 4.77924 1.65171 4.77924 3.31186V4.78844H3.38247C1.73828 4.78844 0.908203 5.6265 0.908203 7.29464V18.381ZM12.6011 10.0243L8.20331 5.54669C7.59672 4.92413 7.09388 4.78844 6.19995 4.78844H6.06427V3.33581C6.06427 2.54564 6.48729 2.09069 7.31736 2.09069H10.8452V6.18521C10.8452 7.11107 11.2922 7.55005 12.21 7.55005H15.9454V14.3742C15.9454 15.1724 15.5144 15.6194 14.6843 15.6194H13.3594V12.1474C13.3594 11.1258 13.2397 10.6788 12.6011 10.0243ZM12.0025 5.99365V2.72123L15.6102 6.39273H12.3936C12.1143 6.39273 12.0025 6.27301 12.0025 5.99365ZM2.19323 18.357V7.3106C2.19323 6.52841 2.61625 6.07347 3.44633 6.07347H6.06427V10.7027C6.06427 11.7084 6.57508 12.2113 7.56479 12.2113H12.0743V18.357C12.0743 19.1552 11.6433 19.6021 10.8213 19.6021H3.43835C2.61625 19.6021 2.19323 19.1552 2.19323 18.357ZM7.71644 11.006C7.39718 11.006 7.26947 10.8783 7.26947 10.5591V6.36878L11.8269 11.006H7.71644Z"
        fill="currentColor" />
</svg>
    