<svg width="19" height="22" viewBox="0 0 19 22" fill="none" xmlns="http://www.w3.org/2000/svg">
    <path
        d="M17.4713 18.1225C17.3273 17.9971 17.3263 17.774 17.4682 17.6461C17.8808 17.2741 18.1403 16.7357 18.1403 16.1364C18.1403 15.5309 17.8753 14.9876 17.4552 14.6153C17.3123 14.4886 17.3123 14.2656 17.4552 14.1389C17.8753 13.7666 18.1403 13.2233 18.1403 12.6178C18.1403 12.0123 17.8753 11.469 17.4552 11.0967C17.3123 10.97 17.3123 10.7469 17.4552 10.6202C17.8753 10.2479 18.1403 9.70462 18.1403 9.09913C18.1403 8.49364 17.8753 7.95033 17.4552 7.57802C17.3123 7.45135 17.3123 7.22826 17.4552 7.10159C17.8753 6.72929 18.1403 6.18598 18.1403 5.58048C18.1403 4.98739 17.8862 4.45375 17.481 4.08215C17.3403 3.95309 17.3422 3.73 17.4873 3.60577C17.9224 3.23304 18.1983 2.67973 18.1983 2.06184C18.1983 1.49312 17.9645 0.979208 17.5881 0.610238C17.2191 0.2338 16.7052 0 16.1365 0C15.563 0 15.0453 0.237651 14.6759 0.619631C14.512 0.789039 14.2422 0.789039 14.0784 0.619631C13.709 0.237604 13.1912 0 12.6178 0C12.0443 0 11.5266 0.237651 11.1572 0.619678C10.9933 0.789087 10.7235 0.789087 10.5597 0.619678C10.1904 0.237651 9.67264 4.69408e-05 9.09918 4.69408e-05C8.49368 4.69408e-05 7.95037 0.264986 7.57807 0.685055C7.4514 0.828022 7.22831 0.828022 7.10164 0.685055C6.72933 0.264986 6.18602 4.69408e-05 5.58053 4.69408e-05C4.97776 4.69408e-05 4.43656 0.262591 4.0644 0.679372C3.94238 0.816045 3.73188 0.824875 3.60117 0.696468L3.51348 0.610331C3.12394 0.2129 2.57283 -0.0255968 1.96616 0.00225441C0.925665 0.0500195 0.0790449 0.89664 0.0312329 1.93719C0.00338164 2.54381 0.241878 3.09496 0.63931 3.4845C0.664766 3.51047 0.690926 3.53579 0.717744 3.5604C0.858315 3.68942 0.856108 3.91237 0.711169 4.0365C0.275929 4.40923 0 4.96259 0 5.58058C0 6.18607 0.264892 6.72938 0.685008 7.10169C0.827975 7.22835 0.827975 7.45145 0.685008 7.57811C0.264939 7.95042 0 8.49373 0 9.09922C0 9.70472 0.264892 10.248 0.685008 10.6203C0.827975 10.747 0.827975 10.9701 0.685008 11.0968C0.264939 11.4691 0 12.0124 0 12.6179C0 13.2234 0.264892 13.7667 0.685008 14.139C0.827975 14.2656 0.827975 14.4887 0.685008 14.6154C0.264939 14.9877 0 15.531 0 16.1365C0 16.742 0.264892 17.2853 0.685008 17.6576C0.827975 17.7843 0.827975 18.0074 0.685008 18.1341C0.264939 18.5064 0 19.0497 0 19.6552C0 20.7779 0.910119 21.688 2.03281 21.688C2.03545 21.688 2.03806 21.6879 2.04067 21.6878C2.04288 21.6877 2.0451 21.6876 2.04732 21.6876C2.04955 21.6876 2.05176 21.6877 2.05398 21.6878C2.05659 21.6879 2.0592 21.688 2.06184 21.688C2.66733 21.688 3.21064 21.423 3.58294 21.003C3.70961 20.86 3.9327 20.86 4.05937 21.003C4.43168 21.423 4.97499 21.688 5.58048 21.688C6.18598 21.688 6.72929 21.423 7.10159 21.003C7.22826 20.86 7.45135 20.86 7.57802 21.003C7.95032 21.423 8.49363 21.688 9.09913 21.688C9.70462 21.688 10.2479 21.423 10.6202 21.003C10.7469 20.86 10.97 20.86 11.0967 21.003C11.469 21.423 12.0123 21.688 12.6178 21.688C13.2166 21.688 13.7548 21.429 14.1268 21.0169C14.2528 20.8773 14.4723 20.8773 14.5984 21.0169C14.9703 21.4289 15.5085 21.688 16.1074 21.688C16.1093 21.688 16.1112 21.6879 16.113 21.6879C16.116 21.6878 16.1189 21.6876 16.1219 21.6876C16.1241 21.6876 16.1263 21.6877 16.1286 21.6878C16.1312 21.6879 16.1338 21.688 16.1364 21.688C17.2591 21.688 18.1692 20.7779 18.1692 19.6552C18.1693 19.0434 17.8989 18.4951 17.4713 18.1225ZM12.6178 17.6222C11.8662 17.6222 11.2102 18.0305 10.8585 18.6371C10.5068 18.0305 9.85088 17.6222 9.09918 17.6222C8.34748 17.6222 7.69159 18.0305 7.33985 18.6371C6.98812 18.0305 6.33223 17.6222 5.58053 17.6222C4.82883 17.6222 4.17294 18.0305 3.82121 18.6371C3.64029 18.3251 3.37892 18.0658 3.06532 17.8874C3.66396 17.5336 4.06571 16.8821 4.06571 16.1364C4.06571 15.3848 3.65743 14.7288 3.05081 14.3771C3.65739 14.0254 4.06571 13.3695 4.06571 12.6178C4.06571 11.8661 3.65743 11.2102 3.05081 10.8585C3.65739 10.5067 4.06571 9.85083 4.06571 9.09913C4.06571 8.34743 3.65743 7.69154 3.05081 7.33981C3.65739 6.98807 4.06571 6.33218 4.06571 5.58048C4.06571 4.84076 3.67054 4.19351 3.07984 3.83783C3.39639 3.66119 3.66067 3.40245 3.84417 3.09031C4.20112 3.67519 4.84522 4.06567 5.58053 4.06567C6.33218 4.06567 6.98812 3.65739 7.33985 3.05076C7.69159 3.65734 8.34748 4.06567 9.09918 4.06567C9.85088 4.06567 10.5068 3.65739 10.8585 3.05076C11.2102 3.65734 11.8662 4.06567 12.6178 4.06567C13.3695 4.06567 14.0254 3.65739 14.3771 3.05076C14.4697 3.21031 14.583 3.35614 14.7139 3.48441C14.8344 3.60737 14.9702 3.71516 15.1185 3.80449C14.4959 4.15195 14.0746 4.81685 14.0746 5.58048C14.0746 6.33214 14.4829 6.98807 15.0895 7.33981C14.4829 7.69154 14.0746 8.34748 14.0746 9.09913C14.0746 9.85078 14.4829 10.5067 15.0895 10.8585C14.4829 11.2102 14.0746 11.8661 14.0746 12.6178C14.0746 13.3694 14.4829 14.0254 15.0895 14.3771C14.4829 14.7288 14.0746 15.3847 14.0746 16.1364C14.0746 16.8881 14.4829 17.544 15.0895 17.8957C14.7907 18.069 14.54 18.3158 14.3626 18.6119C14.0075 18.0191 13.3591 17.6222 12.6178 17.6222Z"
        fill="#8E6049" />
    <path
        d="M17.4713 18.1225C17.3273 17.9971 17.3263 17.774 17.4682 17.6461C17.8808 17.2741 18.1403 16.7357 18.1403 16.1364C18.1403 15.5309 17.8753 14.9876 17.4552 14.6153C17.3123 14.4886 17.3123 14.2656 17.4552 14.1389C17.8753 13.7666 18.1403 13.2233 18.1403 12.6178C18.1403 12.0123 17.8753 11.469 17.4552 11.0967C17.3123 10.97 17.3123 10.7469 17.4552 10.6202C17.8753 10.2479 18.1403 9.70462 18.1403 9.09913C18.1403 8.49364 17.8753 7.95033 17.4552 7.57802C17.3123 7.45135 17.3123 7.22826 17.4552 7.10159C17.8753 6.72929 18.1403 6.18598 18.1403 5.58048C18.1403 4.98739 17.8862 4.45375 17.481 4.08215C17.3403 3.95309 17.3422 3.73 17.4873 3.60577C17.9224 3.23304 18.1983 2.67973 18.1983 2.06184C18.1983 1.49312 17.9645 0.979208 17.5881 0.610238C17.2191 0.2338 16.7052 0 16.1365 0C15.563 0 15.0453 0.237651 14.6759 0.619631C14.512 0.789039 14.2422 0.789039 14.0784 0.619631C13.709 0.237604 13.1912 0 12.6178 0C12.0443 0 11.5266 0.237651 11.1572 0.619678C10.9933 0.789087 10.7235 0.789087 10.5597 0.619678C10.1904 0.237651 9.67264 4.69408e-05 9.09918 4.69408e-05C8.49368 4.69408e-05 7.95037 0.264986 7.57807 0.685055C7.4514 0.828022 7.22831 0.828022 7.10164 0.685055C6.72933 0.264986 6.18602 4.69408e-05 5.58053 4.69408e-05C4.97776 4.69408e-05 4.43656 0.262591 4.0644 0.679372C3.94238 0.816045 3.73188 0.824875 3.60117 0.696468L3.51348 0.610331C3.12394 0.2129 2.57283 -0.0255968 1.96616 0.00225441C0.925665 0.0500195 0.0790449 0.89664 0.0312329 1.93719C0.00338164 2.54381 0.241878 3.09496 0.63931 3.4845C0.664766 3.51047 0.690926 3.53579 0.717744 3.5604C0.858315 3.68942 0.856108 3.91237 0.711169 4.0365C0.275929 4.40923 0 4.96259 0 5.58058C0 6.18607 0.264892 6.72938 0.685008 7.10169C0.827975 7.22835 0.827975 7.45145 0.685008 7.57811C0.264939 7.95042 0 8.49373 0 9.09922C0 9.70472 0.264892 10.248 0.685008 10.6203C0.827975 10.747 0.827975 10.9701 0.685008 11.0968C0.264939 11.4691 0 12.0124 0 12.6179C0 13.2234 0.264892 13.7667 0.685008 14.139C0.827975 14.2656 0.827975 14.4887 0.685008 14.6154C0.264939 14.9877 0 15.531 0 16.1365C0 16.742 0.264892 17.2853 0.685008 17.6576C0.827975 17.7843 0.827975 18.0074 0.685008 18.1341C0.264939 18.5064 0 19.0497 0 19.6552C0 20.7779 0.910119 21.688 2.03281 21.688C2.03545 21.688 2.03806 21.6879 2.04067 21.6878C2.04288 21.6877 2.0451 21.6876 2.04732 21.6876C2.04955 21.6876 2.05176 21.6877 2.05398 21.6878C2.05659 21.6879 2.0592 21.688 2.06184 21.688C2.66733 21.688 3.21064 21.423 3.58294 21.003C3.70961 20.86 3.9327 20.86 4.05937 21.003C4.43168 21.423 4.97499 21.688 5.58048 21.688C6.18598 21.688 6.72929 21.423 7.10159 21.003C7.22826 20.86 7.45135 20.86 7.57802 21.003C7.95032 21.423 8.49363 21.688 9.09913 21.688C9.70462 21.688 10.2479 21.423 10.6202 21.003C10.7469 20.86 10.97 20.86 11.0967 21.003C11.469 21.423 12.0123 21.688 12.6178 21.688C13.2166 21.688 13.7548 21.429 14.1268 21.0169C14.2528 20.8773 14.4723 20.8773 14.5984 21.0169C14.9703 21.4289 15.5085 21.688 16.1074 21.688C16.1093 21.688 16.1112 21.6879 16.113 21.6879C16.116 21.6878 16.1189 21.6876 16.1219 21.6876C16.1241 21.6876 16.1263 21.6877 16.1286 21.6878C16.1312 21.6879 16.1338 21.688 16.1364 21.688C17.2591 21.688 18.1692 20.7779 18.1692 19.6552C18.1693 19.0434 17.8989 18.4951 17.4713 18.1225ZM12.6178 17.6222C11.8662 17.6222 11.2102 18.0305 10.8585 18.6371C10.5068 18.0305 9.85088 17.6222 9.09918 17.6222C8.34748 17.6222 7.69159 18.0305 7.33985 18.6371C6.98812 18.0305 6.33223 17.6222 5.58053 17.6222C4.82883 17.6222 4.17294 18.0305 3.82121 18.6371C3.64029 18.3251 3.37892 18.0658 3.06532 17.8874C3.66396 17.5336 4.06571 16.8821 4.06571 16.1364C4.06571 15.3848 3.65743 14.7288 3.05081 14.3771C3.65739 14.0254 4.06571 13.3695 4.06571 12.6178C4.06571 11.8661 3.65743 11.2102 3.05081 10.8585C3.65739 10.5067 4.06571 9.85083 4.06571 9.09913C4.06571 8.34743 3.65743 7.69154 3.05081 7.33981C3.65739 6.98807 4.06571 6.33218 4.06571 5.58048C4.06571 4.84076 3.67054 4.19351 3.07984 3.83783C3.39639 3.66119 3.66067 3.40245 3.84417 3.09031C4.20112 3.67519 4.84522 4.06567 5.58053 4.06567C6.33218 4.06567 6.98812 3.65739 7.33985 3.05076C7.69159 3.65734 8.34748 4.06567 9.09918 4.06567C9.85088 4.06567 10.5068 3.65739 10.8585 3.05076C11.2102 3.65734 11.8662 4.06567 12.6178 4.06567C13.3695 4.06567 14.0254 3.65739 14.3771 3.05076C14.4697 3.21031 14.583 3.35614 14.7139 3.48441C14.8344 3.60737 14.9702 3.71516 15.1185 3.80449C14.4959 4.15195 14.0746 4.81685 14.0746 5.58048C14.0746 6.33214 14.4829 6.98807 15.0895 7.33981C14.4829 7.69154 14.0746 8.34748 14.0746 9.09913C14.0746 9.85078 14.4829 10.5067 15.0895 10.8585C14.4829 11.2102 14.0746 11.8661 14.0746 12.6178C14.0746 13.3694 14.4829 14.0254 15.0895 14.3771C14.4829 14.7288 14.0746 15.3847 14.0746 16.1364C14.0746 16.8881 14.4829 17.544 15.0895 17.8957C14.7907 18.069 14.54 18.3158 14.3626 18.6119C14.0075 18.0191 13.3591 17.6222 12.6178 17.6222Z"
        stroke="white" />
    <path
        d="M15.4529 19.6547H2.74267C2.36703 19.6547 2.0625 19.3502 2.0625 18.9745V2.74169C2.0625 2.36606 2.36703 2.06152 2.74267 2.06152H15.4529C15.8286 2.06152 16.1331 2.36606 16.1331 2.74169V18.9745C16.1331 19.3502 15.8286 19.6547 15.4529 19.6547Z"
        fill="#76DFFF" />
    <path
        d="M15.4529 19.6547H2.74267C2.36703 19.6547 2.0625 19.3502 2.0625 18.9745V2.74169C2.0625 2.36606 2.36703 2.06152 2.74267 2.06152H15.4529C15.8286 2.06152 16.1331 2.36606 16.1331 2.74169V18.9745C16.1331 19.3502 15.8286 19.6547 15.4529 19.6547Z"
        stroke="white" />
    <path
        d="M13.9686 14.1233L10.3881 9.34932C10.2569 9.17432 9.99447 9.17568 9.8633 9.35068L7.52276 12.4739L6.69826 11.5659C6.56812 11.4226 6.34282 11.4228 6.21267 11.5661L3.90802 14.0996C3.71677 14.3103 3.86627 14.6425 4.15079 14.6425H6.5451H8.76009H13.7062C13.9764 14.6425 14.1307 14.3395 13.9686 14.1233Z"
        fill="#BCBBBB" />
    <path
        d="M15.7544 19.6545H2.4411C2.232 19.6545 2.0625 19.485 2.0625 19.2759V14.2031H16.1331V19.2759C16.133 19.485 15.9635 19.6545 15.7544 19.6545Z"
        fill="#009E83" />
    <path
        d="M12.6433 7.71736C13.1756 7.71736 13.607 7.28592 13.607 6.7537C13.607 6.22149 13.1756 5.79004 12.6433 5.79004C12.1111 5.79004 11.6797 6.22149 11.6797 6.7537C11.6797 7.28592 12.1111 7.71736 12.6433 7.71736Z"
        fill="#FFB636" />
    <path
        d="M14.0049 12.1036C14.1166 12.0249 14.2644 11.9938 14.4185 12.0401C14.6128 12.0984 14.7418 12.2833 14.7418 12.4863C14.7418 12.4881 14.7403 12.4897 14.7384 12.4897H10.2277C10.127 12.4897 10.0526 12.3941 10.0792 12.297C10.1637 11.9886 10.4459 11.7621 10.781 11.7621C10.781 11.4049 11.0706 11.1153 11.4278 11.1153C11.785 11.1153 12.0746 11.4048 12.0746 11.7621C12.0746 11.1903 12.5559 10.7309 13.1355 10.767C13.6139 10.7968 14.0106 11.1734 14.0626 11.65C14.0806 11.8143 14.0585 11.9718 14.005 12.1139L14.0049 12.1036ZM5.71347 7.23017C5.60178 7.15145 5.45403 7.12041 5.29993 7.16667C5.10553 7.225 4.97656 7.40986 4.97656 7.61285C4.97656 7.61473 4.97811 7.61628 4.97999 7.61628H9.49071C9.59136 7.61628 9.66581 7.52066 9.63918 7.42358C9.55473 7.11524 9.27251 6.88867 8.93735 6.88867C8.93735 6.53149 8.6478 6.24189 8.29057 6.24189C7.93339 6.24189 7.6438 6.53144 7.6438 6.88867C7.6438 6.3169 7.16248 5.85752 6.58292 5.89359C6.10451 5.92337 5.70774 6.30004 5.65575 6.77656C5.63781 6.94095 5.65988 7.09843 5.71342 7.24045V7.23017H5.71347Z"
        fill="white" />
</svg>
    