<svg width="24" height="24" viewBox="0 0 24 24" fill="none" xmlns="http://www.w3.org/2000/svg">
    <path
        d="M1.49967 4.66992H21.7519C22.5811 4.66992 23.251 5.33984 23.251 6.16904V20.7292C23.251 21.5584 22.5811 22.2284 21.7519 22.2284H2.24923C1.42003 22.2284 0.750115 21.5584 0.750115 20.7292V6.16904C0.750115 6.10088 0.749577 6.03379 0.749049 5.96807C0.743163 5.23423 0.738636 4.66992 1.49967 4.66992Z"
        fill="#597B91" />
    <path
        d="M1.49967 4.66992H21.7519C22.5811 4.66992 23.251 5.33984 23.251 6.16904V20.7292C23.251 21.5584 22.5811 22.2284 21.7519 22.2284H2.24923C1.42003 22.2284 0.750115 21.5584 0.750115 20.7292V6.16904C0.750115 6.10088 0.749577 6.03379 0.749049 5.96807C0.743163 5.23423 0.738636 4.66992 1.49967 4.66992Z"
        stroke="white" />
    <path
        d="M22.5009 4.67031H15.7501V3.49912C15.7501 2.66992 15.0802 2 14.251 2H9.74897C8.91977 2 8.24985 2.66992 8.24985 3.49912V4.66562H1.49912C0.669919 4.66562 0 5.33554 0 6.16474V11.7255C0 12.5547 0.669919 13.2247 1.49912 13.2247H22.5009C23.3301 13.2247 24 12.5547 24 11.7255V6.16943C24.0047 5.34023 23.3301 4.67031 22.5009 4.67031ZM9.74897 4.25337C9.74897 3.84111 10.0863 3.5038 10.4985 3.5038H13.4968C13.9137 3.5038 14.2463 3.84111 14.2463 4.25337V4.67031H9.74428V4.25337H9.74897Z"
        fill="#2B3B47" />
    <path
        d="M22.5009 4.67031H15.7501V3.49912C15.7501 2.66992 15.0802 2 14.251 2H9.74897C8.91977 2 8.24985 2.66992 8.24985 3.49912V4.66562H1.49912C0.669919 4.66562 0 5.33554 0 6.16474V11.7255C0 12.5547 0.669919 13.2247 1.49912 13.2247H22.5009C23.3301 13.2247 24 12.5547 24 11.7255V6.16943C24.0047 5.34023 23.3301 4.67031 22.5009 4.67031ZM9.74897 4.25337C9.74897 3.84111 10.0863 3.5038 10.4985 3.5038H13.4968C13.9137 3.5038 14.2463 3.84111 14.2463 4.25337V4.67031H9.74428V4.25337H9.74897Z"
        stroke="white" />
    <path
        d="M4.50195 17.9698C4.50195 18.0588 4.52069 18.1478 4.55349 18.2274C4.70808 18.5882 5.18124 19.6001 5.64972 19.6001C6.10882 19.6001 6.55856 18.5788 6.70379 18.2227C6.73658 18.1431 6.75063 18.0588 6.75063 17.9744V4.96021C6.75063 4.5948 6.45081 4.29498 6.0854 4.29498H5.16719C4.80178 4.29498 4.50195 4.5948 4.50195 4.96021V17.9698ZM17.2538 4.96021V17.9744C17.2538 18.0635 17.2726 18.1525 17.3054 18.2321C17.46 18.5928 17.9331 19.6047 18.4016 19.6047C18.8607 19.6047 19.3104 18.5835 19.4557 18.2274C19.4885 18.1478 19.5025 18.0635 19.5025 17.9791V4.96021C19.5025 4.5948 19.2027 4.29498 18.8373 4.29498H17.9191C17.549 4.29029 17.2538 4.59012 17.2538 4.96021Z"
        fill="#FFD469" />
    <path
        d="M4.50195 17.9698C4.50195 18.0588 4.52069 18.1478 4.55349 18.2274C4.70808 18.5882 5.18124 19.6001 5.64972 19.6001C6.10882 19.6001 6.55856 18.5788 6.70379 18.2227C6.73658 18.1431 6.75063 18.0588 6.75063 17.9744V4.96021C6.75063 4.5948 6.45081 4.29498 6.0854 4.29498H5.16719C4.80178 4.29498 4.50195 4.5948 4.50195 4.96021V17.9698ZM17.2538 4.96021V17.9744C17.2538 18.0635 17.2726 18.1525 17.3054 18.2321C17.46 18.5928 17.9331 19.6047 18.4016 19.6047C18.8607 19.6047 19.3104 18.5835 19.4557 18.2274C19.4885 18.1478 19.5025 18.0635 19.5025 17.9791V4.96021C19.5025 4.5948 19.2027 4.29498 18.8373 4.29498H17.9191C17.549 4.29029 17.2538 4.59012 17.2538 4.96021Z"
        stroke="white" />
    <path
        d="M4.48746 16.9772H6.76425C7.17182 16.9772 7.49975 16.6493 7.49975 16.2417V15.464C7.49975 15.0564 7.17182 14.7285 6.76425 14.7285H4.48746C4.07989 14.7285 3.75195 15.0564 3.75195 15.464V16.2417C3.75195 16.6493 4.07989 16.9772 4.48746 16.9772ZM16.5038 15.464V16.2417C16.5038 16.6493 16.8318 16.9772 17.2394 16.9772H19.5161C19.9237 16.9772 20.2516 16.6493 20.2516 16.2417V15.464C20.2516 15.0564 19.9237 14.7285 19.5161 14.7285H17.2394C16.8318 14.7285 16.5038 15.0564 16.5038 15.464Z"
        fill="#EDECE6" />
</svg>
    