<svg width="24" height="24" viewBox="0 0 24 24" fill="none" xmlns="http://www.w3.org/2000/svg">
    <path
        d="M5.61028 14.2061V14.2155C3.52168 14.3505 1.86914 16.0864 1.86914 18.2091C1.86914 20.3318 3.52168 22.0676 5.61028 22.2027V22.2121H9.48701V14.2061H5.61028Z"
        fill="#D32A2A" />
    <path
        d="M5.61028 14.2061V14.2155C3.52168 14.3505 1.86914 16.0864 1.86914 18.2091C1.86914 20.3318 3.52168 22.0676 5.61028 22.2027V22.2121H9.48701V14.2061H5.61028Z"
        stroke="white" />
    <path
        d="M2.58837 7.97949V7.98687C1.14335 8.09186 0 9.44188 0 11.0928C0 12.7437 1.1433 14.0937 2.58837 14.1987V14.2061H5.27056V7.97949H2.58837Z"
        fill="#132028" />
    <path
        d="M2.58837 7.97949V7.98687C1.14335 8.09186 0 9.44188 0 11.0928C0 12.7437 1.1433 14.0937 2.58837 14.1987V14.2061H5.27056V7.97949H2.58837Z"
        stroke="white" />
    <path
        d="M6.78617 1V1.00823C5.16637 1.12593 3.88477 2.63922 3.88477 4.48981C3.88477 6.34039 5.16637 7.85368 6.78617 7.97138V7.97961H10.3252V1H6.78617Z"
        fill="#005877" />
    <path
        d="M6.78617 1V1.00823C5.16637 1.12593 3.88477 2.63922 3.88477 4.48981C3.88477 6.34039 5.16637 7.85368 6.78617 7.97138V7.97961H10.3252V1H6.78617Z"
        stroke="white" />
    <path
        d="M21.6957 6.48359V2.49621C21.6957 2.28707 21.8653 2.11752 22.0744 2.11752H22.8695C23.0786 2.11752 23.2482 1.94796 23.2482 1.73883V1.37869C23.2482 1.16955 23.0786 1 22.8695 1H10.701C10.4918 1 10.3223 1.16955 10.3223 1.37869V7.60102C10.3223 7.81015 10.4918 7.97971 10.701 7.97971H22.8695C23.0786 7.97971 23.2482 7.81015 23.2482 7.60102V7.24088C23.2482 7.03174 23.0786 6.86219 22.8695 6.86219H22.0744C21.8653 6.86224 21.6957 6.69273 21.6957 6.48359Z"
        fill="#00B1FF" />
    <path
        d="M19.7508 9.13759H22.154C22.4382 9.13759 22.6687 8.95995 22.6687 8.74077V8.37631C22.6687 8.15718 22.4382 7.97949 22.154 7.97949H5.16514V7.98891C3.75048 8.10728 2.63477 9.45115 2.63477 11.0927C2.63477 12.7343 3.75048 14.0782 5.16514 14.1966V14.206H22.154C22.4382 14.206 22.6687 14.0284 22.6687 13.8092V13.4113C22.6687 13.1922 22.4382 13.0145 22.154 13.0145H19.7508C19.4666 13.0145 19.2361 12.8368 19.2361 12.6176V9.53426C19.2361 9.31523 19.4666 9.13759 19.7508 9.13759Z"
        fill="#445056" />
    <path
        d="M21.4899 13.0145L21.3893 12.9215C21.3415 12.8738 21.3415 12.7963 21.3893 12.7486L21.4984 12.6395C21.5462 12.5917 21.5462 12.5143 21.4984 12.4665L21.3893 12.3574C21.3415 12.3096 21.3415 12.2322 21.3893 12.1845L21.4984 12.0753C21.5462 12.0276 21.5462 11.9501 21.4984 11.9024L21.3893 11.7933C21.3415 11.7455 21.3415 11.6681 21.3893 11.6203L21.4984 11.5112C21.5462 11.4634 21.5462 11.386 21.4984 11.3383L21.3893 11.2291C21.3415 11.1814 21.3415 11.104 21.3893 11.0562L21.4984 10.9471C21.5462 10.8993 21.5462 10.8218 21.4984 10.7741L21.3893 10.665C21.3415 10.6172 21.3415 10.5398 21.3893 10.4921L21.4984 10.3829C21.5462 10.3352 21.5462 10.2577 21.4984 10.21L21.3893 10.1009C21.3415 10.0531 21.3415 9.97564 21.3893 9.92793L21.4984 9.81879C21.5462 9.77103 21.5462 9.69358 21.4984 9.64586L21.3893 9.53672C21.3415 9.48896 21.3415 9.41151 21.3893 9.36379L21.4984 9.25466C21.5462 9.20689 21.5462 9.18325 21.4984 9.13553L21.3028 9.13724H5.86489C5.72474 9.09138 5.57726 9.06641 5.42483 9.06641C4.51279 9.06641 3.77344 9.94296 3.77344 11.0243C3.77344 12.1056 4.51279 12.9821 5.42483 12.9821V13.0219H21.3029"
        fill="#DCE2E2" />
    <path
        d="M10.3218 1C8.39446 1 6.83203 2.56243 6.83203 4.48981C6.83203 6.41718 8.39446 7.97961 10.3218 7.97961H12.0668V1H10.3218Z"
        fill="#0074A8" />
    <path
        d="M22.6608 2.90716C22.7086 2.85939 22.7086 2.78199 22.6608 2.73423L22.5517 2.62509C22.5039 2.57733 22.5039 2.49987 22.5517 2.45216L22.6608 2.34302C22.7086 2.29526 22.7162 2.16495 22.6685 2.11719H22.4652H10.4856C9.17542 2.11719 8.11328 3.17933 8.11328 4.48952C8.11328 5.79972 9.17542 6.86186 10.4856 6.86186H22.4652H22.6613C22.7091 6.81409 22.7086 6.73084 22.6609 6.68307L22.5517 6.57394C22.504 6.52617 22.504 6.44877 22.5517 6.40101L22.6609 6.29187C22.7086 6.24411 22.7086 6.16666 22.6609 6.11894L22.5517 6.0098C22.504 5.96204 22.504 5.88464 22.5517 5.83687L22.6609 5.72774C22.7086 5.67997 22.7086 5.60252 22.6609 5.5548L22.5517 5.44567C22.504 5.39791 22.504 5.3205 22.5517 5.27274L22.6609 5.1636C22.7086 5.11584 22.7086 5.03839 22.6609 4.99067L22.5517 4.88153C22.504 4.83377 22.504 4.75637 22.5517 4.7086L22.6609 4.59947C22.7086 4.5517 22.7086 4.47425 22.6609 4.42653L22.5517 4.3174C22.504 4.26963 22.504 4.19223 22.5517 4.14447L22.6609 4.03533C22.7086 3.98757 22.7086 3.91012 22.6609 3.8624L22.5517 3.75326C22.504 3.7055 22.504 3.6281 22.5517 3.58033L22.6609 3.4712C22.7086 3.42343 22.7086 3.34598 22.6609 3.29826L22.5517 3.18913C22.504 3.14137 22.504 3.06391 22.5517 3.0162L22.6608 2.90716Z"
        fill="#DCE2E2" />
    <path
        d="M22.6546 15.4878H23.5665C23.8064 15.4878 24.0009 15.2934 24.0009 15.0535V14.6404C24.0009 14.4005 23.8064 14.2061 23.5665 14.2061H9.04291C9.00523 14.2061 8.96893 14.2113 8.93406 14.2204C8.82659 14.2117 8.71826 14.2061 8.6085 14.2061C6.39768 14.2061 4.60547 15.9983 4.60547 18.2091C4.60547 20.4199 6.39768 22.2121 8.6085 22.2121C8.71821 22.2121 8.82654 22.2065 8.93406 22.1978C8.96888 22.2068 9.00523 22.2121 9.04291 22.2121H23.5665C23.8064 22.2121 24.0009 22.0176 24.0009 21.7778V21.3647C24.0009 21.1248 23.8064 20.9303 23.5665 20.9303H22.6545C22.4146 20.9303 22.2202 20.7359 22.2202 20.496V15.9222C22.2202 15.6823 22.4147 15.4878 22.6546 15.4878Z"
        fill="#FF473E" />
    <path
        d="M23.343 16.4186C23.3956 16.3661 23.3956 16.2809 23.343 16.2284L23.223 16.1084C23.1705 16.0558 23.1705 15.9706 23.223 15.9181L23.343 15.7981C23.3956 15.7456 23.3956 15.6604 23.343 15.6078L23.2265 15.4883H23.1279H8.79542C7.29255 15.4883 6.07422 16.7066 6.07422 18.2095C6.07422 19.7123 7.29255 20.9307 8.79542 20.9307H23.1279H23.1754L23.343 20.7631C23.3956 20.7105 23.3956 20.6253 23.343 20.5728L23.223 20.4528C23.1705 20.4003 23.1705 20.3151 23.223 20.2625L23.343 20.1425C23.3956 20.09 23.3956 20.0048 23.343 19.9522L23.223 19.8322C23.1705 19.7797 23.1705 19.6945 23.223 19.6419L23.343 19.5219C23.3956 19.4694 23.3956 19.3842 23.343 19.3317L23.223 19.2116C23.1705 19.1591 23.1705 19.0739 23.223 19.0213L23.343 18.9013C23.3956 18.8488 23.3956 18.7636 23.343 18.7111L23.223 18.591C23.1705 18.5385 23.1705 18.4533 23.223 18.4008L23.343 18.2807C23.3956 18.2282 23.3956 18.143 23.343 18.0904L23.223 17.9704C23.1705 17.9179 23.1705 17.8327 23.223 17.7802L23.343 17.6601C23.3956 17.6076 23.3956 17.5224 23.343 17.4699L23.223 17.3499C23.1705 17.2973 23.1705 17.2121 23.223 17.1596L23.343 17.0396C23.3956 16.9871 23.3956 16.9019 23.343 16.8493L23.223 16.7293C23.1705 16.6768 23.1705 16.5916 23.223 16.5391L23.343 16.4186Z"
        fill="#DCE2E2" />
</svg>
    