<svg width="24" height="25" viewBox="0 0 24 25" fill="none" xmlns="http://www.w3.org/2000/svg">
    <path
        d="M15.1975 23.9249L4.01406 18.503C3.67297 18.3377 3.5305 17.9271 3.69585 17.586L11.5133 1.46133C11.6787 1.12024 12.0893 0.977767 12.4304 1.14312L23.6138 6.56501C23.9548 6.73036 24.0973 7.14094 23.932 7.48203L16.1145 23.6067C15.9491 23.9478 15.5385 24.0903 15.1975 23.9249Z"
        fill="#FF6F1F" />
    <path
        d="M15.1975 23.9249L4.01406 18.503C3.67297 18.3377 3.5305 17.9271 3.69585 17.586L11.5133 1.46133C11.6787 1.12024 12.0893 0.977767 12.4304 1.14312L23.6138 6.56501C23.9548 6.73036 24.0973 7.14094 23.932 7.48203L16.1145 23.6067C15.9491 23.9478 15.5385 24.0903 15.1975 23.9249Z"
        stroke="white" />
    <path
        d="M3.63537 17.7078L5.32619 14.2202C6.38865 14.7353 7.45717 14.4631 8.67504 14.1527C10.2887 13.7416 12.1645 13.2636 14.6358 14.4618C16.5959 15.4121 18.0536 16.5552 19.0627 17.5226L16.054 23.7285C15.9213 24.0022 15.5918 24.1165 15.3181 23.9838L3.89071 18.4437C3.61702 18.311 3.50267 17.9815 3.63537 17.7078Z"
        fill="#2B3B47" />
    <path
        d="M3.63537 17.7078L5.32619 14.2202C6.38865 14.7353 7.45717 14.4631 8.67504 14.1527C10.2887 13.7416 12.1645 13.2636 14.6358 14.4618C16.5959 15.4121 18.0536 16.5552 19.0627 17.5226L16.054 23.7285C15.9213 24.0022 15.5918 24.1165 15.3181 23.9838L3.89071 18.4437C3.61702 18.311 3.50267 17.9815 3.63537 17.7078Z"
        stroke="white" />
    <path
        d="M16.4046 10.3678C15.5023 12.2289 13.2622 13.0061 11.4011 12.1038C9.54005 11.2015 8.76277 8.96142 9.66507 7.10034C10.5674 5.23926 12.8075 4.46199 14.6686 5.36429C16.5296 6.26659 17.3069 8.50675 16.4046 10.3678Z"
        fill="white" />
    <path
        d="M13.5776 19.6812H1.14927C0.770187 19.6812 0.462891 19.3739 0.462891 18.9948V1.07505C0.462891 0.695968 0.770187 0.388672 1.14927 0.388672H13.5777C13.9567 0.388672 14.264 0.695968 14.264 1.07505V18.9948C14.264 19.3739 13.9567 19.6812 13.5776 19.6812Z"
        fill="white" />
    <path
        d="M13.1148 19.2925H0.686376C0.307296 19.2925 0 18.9852 0 18.6062V0.686375C0 0.307296 0.307296 0 0.686376 0H13.1148C13.4939 0 13.8012 0.307296 13.8012 0.686375V18.6062C13.8012 18.9852 13.4939 19.2925 13.1148 19.2925Z"
        fill="#FF6F1F" />
    <path
        d="M0 18.7422V14.8664C2.74522 14.8664 3.66315 11.0225 8.48241 11.0225C10.6607 11.0225 12.4711 11.4151 13.8011 11.8455V18.7422C13.8011 19.0464 13.5545 19.293 13.2503 19.293H0.550816C0.246619 19.293 0 19.0464 0 18.7422Z"
        fill="#2B3B47" />
    <path
        d="M8.28866 6.56618C8.28866 8.63446 6.612 10.3111 4.54377 10.3111C2.47554 10.3111 0.798828 8.63441 0.798828 6.56618C0.798828 4.49795 2.47549 2.82129 4.54372 2.82129C6.61195 2.82129 8.28866 4.4979 8.28866 6.56618Z"
        fill="white" />
</svg>
    