<svg width="16" height="24" viewBox="0 0 16 24" fill="none" xmlns="http://www.w3.org/2000/svg">
    <path
        d="M11.3631 10.4581C11.3631 10.4581 12 7.57539 12.6704 5.59773C12.6774 5.56975 12.6844 5.54323 12.6911 5.51786C12.7164 5.42168 12.7374 5.34211 12.7374 5.26254C12.771 5.0279 12.8045 4.79326 12.8045 4.52511C12.8045 3.58656 11.6983 2.2793 10.9609 2.2793C10.0559 2.2793 8.9162 3.05025 8.07821 3.75416C7.91061 3.88824 7.7095 3.88824 7.5419 3.75416C6.73743 3.05025 5.6648 2.2793 4.65922 2.2793C3.92179 2.2793 2.81564 3.58656 2.81564 4.52511C2.81564 5.16198 2.9162 5.66477 3.11732 6.06701C3.63798 7.68686 4.0588 9.68114 4.18591 10.2835C4.20609 10.3791 4.21887 10.4397 4.22346 10.4581C3.05028 11.6648 0 22.0894 0 22.0894C0 22.0894 0.837989 23.1955 4.15642 23.7318L4.18994 23.4301L4.89385 23.5307L4.86034 23.8324C5.69832 23.9329 6.67039 24 7.81006 24C8.94972 24 9.92179 23.9329 10.7598 23.8324L10.7263 23.5307L11.4302 23.4301L11.4637 23.7318C14.8156 23.229 15.6201 22.0894 15.6201 22.0894C15.6201 22.0894 12.4693 11.5642 11.3631 10.4581Z"
        fill="#00D1AE" />
    <path
        d="M11.3631 10.4581C11.3631 10.4581 12 7.57539 12.6704 5.59773C12.6774 5.56975 12.6844 5.54323 12.6911 5.51786C12.7164 5.42168 12.7374 5.34211 12.7374 5.26254C12.771 5.0279 12.8045 4.79326 12.8045 4.52511C12.8045 3.58656 11.6983 2.2793 10.9609 2.2793C10.0559 2.2793 8.9162 3.05025 8.07821 3.75416C7.91061 3.88824 7.7095 3.88824 7.5419 3.75416C6.73743 3.05025 5.6648 2.2793 4.65922 2.2793C3.92179 2.2793 2.81564 3.58656 2.81564 4.52511C2.81564 5.16198 2.9162 5.66477 3.11732 6.06701C3.63798 7.68686 4.0588 9.68114 4.18591 10.2835C4.20609 10.3791 4.21887 10.4397 4.22346 10.4581C3.05028 11.6648 0 22.0894 0 22.0894C0 22.0894 0.837989 23.1955 4.15642 23.7318L4.18994 23.4301L4.89385 23.5307L4.86034 23.8324C5.69832 23.9329 6.67039 24 7.81006 24C8.94972 24 9.92179 23.9329 10.7598 23.8324L10.7263 23.5307L11.4302 23.4301L11.4637 23.7318C14.8156 23.229 15.6201 22.0894 15.6201 22.0894C15.6201 22.0894 12.4693 11.5642 11.3631 10.4581Z"
        stroke="white" />
    <path
        d="M7.81104 11.0615C5.33059 11.0615 4.19093 10.6927 4.12389 10.6592C3.88925 10.5922 3.95629 9.68715 4.19093 9.75419L4.19588 9.75561C4.43992 9.82536 5.4808 10.1229 7.81104 10.1229C10.1574 10.1229 11.3306 9.78771 11.3306 9.78771C11.5652 9.72067 11.6658 10.5922 11.4311 10.6927C11.4277 10.6927 11.4131 10.6967 11.3869 10.7038C11.1601 10.7651 10.0648 11.0615 7.81104 11.0615ZM5.90042 14.4469C5.63227 14.4469 4.15741 23.6983 4.15741 23.6983L4.86132 23.7654C4.86132 23.7654 6.16858 14.4469 5.90042 14.4469ZM9.72165 14.4469C9.98981 14.4469 11.4647 23.6983 11.4647 23.6983L10.7608 23.7654C10.7608 23.7654 9.4535 14.4469 9.72165 14.4469ZM11.096 2.27933V0.469274C11.096 0.201117 11.2971 0 11.5652 0C11.8334 0 12.0345 0.201117 12.0345 0.469274V2.9162C11.7328 2.58101 11.3976 2.34637 11.096 2.27933ZM3.62109 2.88268V0.469274C3.62109 0.201117 3.82221 0 4.09037 0C4.35852 0 4.55964 0.201117 4.55964 0.469274V2.27933C4.25797 2.31285 3.88925 2.54749 3.62109 2.88268Z"
        fill="#00B89C" />
    <path
        d="M7.81104 11.0615C5.33059 11.0615 4.19093 10.6927 4.12389 10.6592C3.88925 10.5922 3.95629 9.68715 4.19093 9.75419L4.19588 9.75561C4.43992 9.82536 5.4808 10.1229 7.81104 10.1229C10.1574 10.1229 11.3306 9.78771 11.3306 9.78771C11.5652 9.72067 11.6658 10.5922 11.4311 10.6927C11.4277 10.6927 11.4131 10.6967 11.3869 10.7038C11.1601 10.7651 10.0648 11.0615 7.81104 11.0615ZM5.90042 14.4469C5.63227 14.4469 4.15741 23.6983 4.15741 23.6983L4.86132 23.7654C4.86132 23.7654 6.16858 14.4469 5.90042 14.4469ZM9.72165 14.4469C9.98981 14.4469 11.4647 23.6983 11.4647 23.6983L10.7608 23.7654C10.7608 23.7654 9.4535 14.4469 9.72165 14.4469ZM11.096 2.27933V0.469274C11.096 0.201117 11.2971 0 11.5652 0C11.8334 0 12.0345 0.201117 12.0345 0.469274V2.9162C11.7328 2.58101 11.3976 2.34637 11.096 2.27933ZM3.62109 2.88268V0.469274C3.62109 0.201117 3.82221 0 4.09037 0C4.35852 0 4.55964 0.201117 4.55964 0.469274V2.27933C4.25797 2.31285 3.88925 2.54749 3.62109 2.88268Z"
        stroke="white" />
</svg>
    