<svg width="24" height="24" viewBox="0 0 24 24" fill="none" xmlns="http://www.w3.org/2000/svg">
    <path
        d="M20.2458 0H16.5737V9.07543H14.293V16.5353H16.5737V23.9952H20.2458C20.452 23.9952 20.6125 23.8329 20.6125 23.6267V0.373233C20.6125 0.167064 20.452 0 20.2458 0Z"
        fill="#AF773F" />
    <path
        d="M20.2458 0H16.5737V9.07543H14.293V16.5353H16.5737V23.9952H20.2458C20.452 23.9952 20.6125 23.8329 20.6125 23.6267V0.373233C20.6125 0.167064 20.452 0 20.2458 0Z"
        stroke="white" />
    <path
        d="M16.6526 9.06755H14.3695V16.5335H4.37328C4.16711 16.5335 4 16.3664 4 16.1603V9.44083C4 9.23466 4.16711 9.06755 4.37328 9.06755H6.28311V1.60156H16.6526V9.06755H16.6526ZM16.6526 16.5336H6.28311V23.6263C6.28311 23.8325 6.45022 23.9996 6.65639 23.9996H16.6526V16.5336Z"
        fill="#D19B61" />
    <path
        d="M16.6526 9.06755H14.3695V16.5335H4.37328C4.16711 16.5335 4 16.3664 4 16.1603V9.44083C4 9.23466 4.16711 9.06755 4.37328 9.06755H6.28311V1.60156H16.6526V9.06755H16.6526ZM16.6526 16.5336H6.28311V23.6263C6.28311 23.8325 6.45022 23.9996 6.65639 23.9996H16.6526V16.5336Z"
        stroke="white" />
    <path
        d="M12.7655 3.15543V3.95041C12.7655 4.04487 12.6889 4.12146 12.5944 4.12146H10.3409C10.2464 4.12146 10.1698 4.04487 10.1698 3.95041V3.15543C10.1698 3.06097 10.2464 2.98438 10.3409 2.98438H12.5944C12.6889 2.98438 12.7655 3.06092 12.7655 3.15543ZM12.5944 17.9682H10.3409C10.2464 17.9682 10.1698 18.0448 10.1698 18.1393V18.9343C10.1698 19.0287 10.2464 19.1053 10.3409 19.1053H12.5944C12.6889 19.1053 12.7655 19.0287 12.7655 18.9343V18.1393C12.7655 18.0448 12.6889 17.9682 12.5944 17.9682ZM10.3113 10.4504H8.05777C7.96331 10.4504 7.88672 10.527 7.88672 10.6214V11.4164C7.88672 11.5109 7.96331 11.5875 8.05777 11.5875H10.3113C10.4057 11.5875 10.4823 11.5109 10.4823 11.4164V10.6214C10.4823 10.527 10.4058 10.4504 10.3113 10.4504Z"
        fill="#F9E7C0" />
    <path
        d="M12.4946 5.72402H10.4415C10.2267 5.72402 10.0526 5.54992 10.0526 5.33515C10.0526 5.12039 10.2267 4.94629 10.4415 4.94629H12.4946C12.7094 4.94629 12.8835 5.12039 12.8835 5.33515C12.8835 5.54992 12.7094 5.72402 12.4946 5.72402ZM12.8835 20.2673C12.8835 20.0525 12.7094 19.8784 12.4946 19.8784H10.4415C10.2267 19.8784 10.0526 20.0525 10.0526 20.2673C10.0526 20.482 10.2267 20.6561 10.4415 20.6561H12.4946C12.7094 20.6561 12.8835 20.482 12.8835 20.2673ZM10.6004 12.8012C10.6004 12.5865 10.4263 12.4124 10.2115 12.4124H8.1584C7.94363 12.4124 7.76953 12.5865 7.76953 12.8012C7.76953 13.016 7.94363 13.1901 8.1584 13.1901H10.2115C10.4263 13.1901 10.6004 13.016 10.6004 12.8012Z"
        fill="#7A5039" />
    <path
        d="M16.6522 1.60198H6.28277V0.373281C6.28277 0.167111 6.44988 0 6.65605 0H16.6522V1.60198ZM14.3888 9.07548H16.6695V8.55281H6.26367V9.07548H14.3888ZM6.26367 16.5354V17.0581H16.6695V16.5354"
        fill="#7A5039" />
    <path
        d="M12.2874 7.8872H7.45258V7.52285C7.45258 7.31668 7.30538 7.12695 7.09921 7.12695H5.41241C5.20624 7.12695 5.0293 7.31668 5.0293 7.52285V7.87541V8.29018V9.07508H12.6793V8.2487C12.6793 8.04253 12.4935 7.8872 12.2874 7.8872Z"
        fill="#FFB636" />
</svg>
    