<svg width="24" height="24" viewBox="0 0 24 24" fill="none" xmlns="http://www.w3.org/2000/svg">
    <path opacity="0.33"
        d="M8.41422 9.0856C9.81027 10.4817 9.94635 12.6625 8.82245 14.2115L3.28829 8.67737C4.83733 7.55347 7.01816 7.68955 8.41422 9.0856Z"
        fill="#B0E9FF" stroke="white" stroke-width="1.25331" />
    <path opacity="0.33"
        d="M21.1564 9.0856C22.5525 10.4817 22.6885 12.6625 21.5646 14.2115L16.0305 8.67737C17.5795 7.55347 19.7604 7.68955 21.1564 9.0856Z"
        fill="#B0E9FF" stroke="white" stroke-width="1.25331" />
    <path
        d="M23.3916 8.4397H22.0056C21.093 7.49322 19.8085 6.88477 18.3549 6.88477C16.462 6.88477 14.8394 7.89885 13.9606 9.45378C12.7099 8.74392 11.1887 8.71012 9.90423 9.41998C9.02535 7.93265 7.40282 6.91857 5.54366 6.91857C4.12394 6.91857 2.80563 7.52702 1.89296 8.4735H0.540845C0.23662 8.4735 0 8.71012 0 9.01434V11.1101C0 11.4143 0.23662 11.651 0.507042 11.651V11.9552C0.507042 14.7608 2.77183 17.0256 5.57746 17.0256C8.3831 17.0256 10.6479 14.7608 10.6479 11.9552C10.6479 11.4143 10.5803 10.9073 10.4113 10.4341C11.3577 9.85941 12.6085 9.89322 13.5549 10.4679C13.4197 10.9411 13.3183 11.4481 13.3183 11.9552C13.3183 14.7608 15.5831 17.0256 18.3887 17.0256C21.1944 17.0256 23.4592 14.7608 23.4592 11.9552C23.4592 11.8538 23.4592 11.7524 23.4592 11.651C23.7634 11.651 24 11.3805 24 11.1101V9.01434C23.9324 8.71012 23.6958 8.4397 23.3916 8.4397ZM5.57746 16.0791C3.31268 16.0791 1.45352 14.22 1.45352 11.9552C1.45352 11.7862 1.45352 11.651 1.48732 11.4819H5.13803C6.15211 11.4819 6.96338 12.2932 6.96338 13.3073C6.96338 13.5777 7.1662 13.7805 7.43662 13.7805C7.70704 13.7805 7.90986 13.5777 7.90986 13.3073C7.90986 11.7862 6.65915 10.5355 5.13803 10.5355H1.69014C2.26479 8.94674 3.78592 7.79744 5.57746 7.79744C7.84225 7.79744 9.70141 9.6566 9.70141 11.9214C9.70141 14.2538 7.84225 16.0791 5.57746 16.0791ZM18.3549 16.0791C16.0901 16.0791 14.231 14.22 14.231 11.9552C14.231 9.6904 16.0901 7.83124 18.3549 7.83124C20.1465 7.83124 21.6676 8.98054 22.2423 10.5693H18.7268C17.2056 10.5693 15.9549 11.82 15.9549 13.3411C15.9549 13.6115 16.1577 13.8143 16.4282 13.8143C16.6986 13.8143 16.9014 13.6115 16.9014 13.3411C16.9014 12.327 17.7127 11.5158 18.7268 11.5158H22.4789C22.5127 11.6848 22.5127 11.82 22.5127 11.989C22.4789 14.2538 20.6535 16.0791 18.3549 16.0791Z"
        fill="white" />
</svg>
    