<svg width="24" height="24" viewBox="0 0 24 24" fill="none" xmlns="http://www.w3.org/2000/svg">
    <path
        d="M12.9082 3.99461L13.546 4.80021L15.1907 2.51769C15.1907 2.51769 15.2243 2.45056 15.2243 2.41699H13.5124L12.9082 3.99461Z"
        fill="#59CAFC" />
    <path
        d="M12.9082 3.99461L13.546 4.80021L15.1907 2.51769C15.1907 2.51769 15.2243 2.45056 15.2243 2.41699H13.5124L12.9082 3.99461Z"
        stroke="white" />
    <path
        d="M9.7529 2.41699H8.04102C8.04102 2.48413 8.14172 2.61839 8.14172 2.61839L9.71934 4.83378L10.3571 4.02818L9.7529 2.41699Z"
        fill="#0096D1" />
    <path
        d="M9.7529 2.41699H8.04102C8.04102 2.48413 8.14172 2.61839 8.14172 2.61839L9.71934 4.83378L10.3571 4.02818L9.7529 2.41699Z"
        stroke="white" />
    <path
        d="M10.6942 1.20843L9.78793 0.067167C9.75436 0.0336006 9.7208 0.0336006 9.68723 0.067167L8.10961 2.28255C8.07604 2.31612 8.10961 2.41682 8.14317 2.41682H9.75436L10.6942 1.20843Z"
        fill="#00B1FF" />
    <path
        d="M10.6942 1.20843L9.78793 0.067167C9.75436 0.0336006 9.7208 0.0336006 9.68723 0.067167L8.10961 2.28255C8.07604 2.31612 8.10961 2.41682 8.14317 2.41682H9.75436L10.6942 1.20843Z"
        stroke="white" />
    <path
        d="M13.4789 2.41678H15.0901C15.1572 2.41678 15.1572 2.34965 15.1237 2.28252L13.5125 0L12.5391 1.20839L13.4789 2.41678Z"
        fill="#76DFFF" />
    <path d="M11.6328 2.41699L12.9083 3.99461L13.479 2.41699H11.6328Z" fill="#00B1FF" />
    <path d="M9.75391 2.41699L10.3581 3.99461L11.6336 2.41699H9.75391Z" fill="#00B1FF" />
    <path d="M10.6938 1.20801L9.75391 2.4164H11.6336L10.6938 1.20801Z" fill="#27C7FF" />
    <path d="M12.5727 1.20898L11.6328 2.41738H13.479L12.5727 1.20898Z" fill="#B0E9FF" />
    <path d="M13.5125 0H11.6999H11.6328L12.5727 1.20839L13.5125 0Z" fill="#59CAFC" />
    <path
        d="M11.6336 0H11.5665H9.85461C9.82104 0 9.75391 0 9.75391 0.0335664L10.6938 1.20839L11.6336 0Z"
        fill="#59CAFC" />
    <path d="M11.6332 2.41678L12.5731 1.20839L11.6332 0L10.6934 1.20839L11.6332 2.41678Z"
        fill="#76DFFF" />
    <path d="M12.9095 3.99414L12.6074 4.79974H13.5137L12.9095 3.99414Z" fill="#00B1FF" />
    <path d="M10.3585 3.99414L9.7207 4.79974H10.627L10.3585 3.99414Z" fill="#0074A8" />
    <path
        d="M10.3574 3.99461L10.626 4.80021H12.6064L12.9085 3.99461L11.6329 2.41699L10.3574 3.99461Z"
        fill="#0096D1" />
    <path
        d="M12.7413 4.63233L13.5133 3.42394C13.5804 3.32324 13.5469 3.18897 13.4462 3.12184C13.3455 3.05471 13.2112 3.08827 13.1441 3.18897L12.4056 4.33023H10.8951L10.1566 3.18897C10.0895 3.08827 9.95525 3.05471 9.85455 3.12184C9.75385 3.18897 9.72028 3.32324 9.78741 3.42394L10.5594 4.63233C5.72587 5.27009 2 9.3652 2 14.2995C2 19.6365 6.36364 24.0002 11.7007 24.0002C17.0378 24.0002 21.4014 19.6365 21.4014 14.2995C21.4014 9.29806 17.6084 5.16939 12.7413 4.63233ZM11.7007 22.6575C7.1021 22.6575 3.34266 18.8981 3.34266 14.2995C3.34266 9.70086 7.1021 5.94142 11.7007 5.94142C16.2993 5.94142 20.0587 9.70086 20.0587 14.2995C20.0587 18.8981 16.3329 22.6575 11.7007 22.6575Z"
        fill="#D1CFC3" />
    <path
        d="M16.7027 2.45037C17.3405 2.61821 17.844 3.1217 18.0118 3.75946C18.0118 3.8266 18.1125 3.8266 18.1125 3.75946C18.2803 3.1217 18.7838 2.61821 19.4216 2.45037C19.4887 2.45037 19.4887 2.34967 19.4216 2.34967C18.7838 2.18184 18.2803 1.67835 18.1125 1.04058C18.1125 0.973451 18.0118 0.973451 18.0118 1.04058C17.8104 1.67835 17.3405 2.18184 16.7027 2.34967C16.6356 2.34967 16.6356 2.45037 16.7027 2.45037Z"
        fill="#B0E9FF" />
    <path
        d="M2.33529 4.02819C3.44298 4.29672 4.34928 5.20302 4.61781 6.31071C4.65137 6.41141 4.78564 6.41141 4.81921 6.31071C5.08774 5.20302 5.99403 4.29672 7.10172 4.02819C7.20242 3.99462 7.20242 3.86036 7.10172 3.82679C5.99403 3.55826 5.08774 2.65197 4.81921 1.54427C4.78564 1.44358 4.65137 1.44358 4.61781 1.54427C4.34928 2.65197 3.44298 3.55826 2.33529 3.82679C2.23459 3.86036 2.23459 4.02819 2.33529 4.02819Z"
        fill="#B0E9FF" />
</svg>
    