<svg width="24" height="24" viewBox="0 0 24 24" fill="none" xmlns="http://www.w3.org/2000/svg">
    <path
        d="M5 0.505052L5.33661 22.6874C5.33661 23.024 5.63955 23.3269 5.97616 23.3269H9.20757C9.54418 23.3269 9.84712 23.024 9.84712 22.6874L10.5203 7.6411C10.5203 6.96789 11.0589 6.46298 11.7321 6.46298C12.4053 6.46298 12.9439 7.00155 12.9439 7.6411L13.6171 22.6874C13.6171 23.024 13.9201 23.3269 14.2567 23.3269H17.4544C17.791 23.3269 18.094 23.024 18.094 22.6874L18.4306 0.505052C18.4306 0.196898 18.1767 0.199062 17.8755 0.201629C17.8477 0.201866 17.8195 0.202107 17.791 0.202107H5.63955C5.6111 0.202107 5.58289 0.201866 5.55508 0.201629C5.2539 0.199062 5 0.196898 5 0.505052Z"
        fill="#00ADE1" />
    <path
        d="M5 0.505052L5.33661 22.6874C5.33661 23.024 5.63955 23.3269 5.97616 23.3269H9.20757C9.54418 23.3269 9.84712 23.024 9.84712 22.6874L10.5203 7.6411C10.5203 6.96789 11.0589 6.46298 11.7321 6.46298C12.4053 6.46298 12.9439 7.00155 12.9439 7.6411L13.6171 22.6874C13.6171 23.024 13.9201 23.3269 14.2567 23.3269H17.4544C17.791 23.3269 18.094 23.024 18.094 22.6874L18.4306 0.505052C18.4306 0.196898 18.1767 0.199062 17.8755 0.201629C17.8477 0.201866 17.8195 0.202107 17.791 0.202107H5.63955C5.6111 0.202107 5.58289 0.201866 5.55508 0.201629C5.2539 0.199062 5 0.196898 5 0.505052Z"
        stroke="white" />
    <path
        d="M11.4628 4.27489C11.3619 4.27489 11.2609 4.17391 11.2609 4.07293V1.38008C11.2609 1.2791 11.3619 1.17812 11.4628 1.17812C11.5638 1.17812 11.6648 1.2791 11.6648 1.38008V4.07293C11.6985 4.20757 11.5975 4.27489 11.4628 4.27489ZM12.2707 4.64516C12.3043 4.57784 12.2707 4.51052 12.237 4.47686C12.1697 4.4432 12.1024 4.47686 12.0687 4.51052C11.9341 4.71248 11.8331 4.81346 11.7321 4.81346C11.6648 4.81346 11.5975 4.88078 11.5975 4.94811C11.5975 5.01543 11.6648 5.08275 11.7321 5.08275C11.9004 5.08275 12.1024 4.94811 12.2707 4.64516ZM12.6073 3.80365C12.6746 3.60168 12.7083 3.39972 12.7083 3.19776C12.7083 3.13043 12.6746 3.06311 12.6073 3.06311C12.54 3.06311 12.4727 3.09677 12.4727 3.1641C12.439 3.36606 12.4053 3.53436 12.3717 3.73633C12.3717 3.80365 12.4053 3.87097 12.4727 3.87097H12.5063C12.54 3.87097 12.6073 3.83731 12.6073 3.80365ZM12.7419 2.28892V1.68303C12.7419 1.61571 12.6746 1.54839 12.6073 1.54839C12.54 1.54839 12.4727 1.61571 12.4727 1.68303V2.28892C12.4727 2.35624 12.54 2.42356 12.6073 2.42356C12.6746 2.42356 12.7419 2.35624 12.7419 2.28892ZM18.2623 1.58205C18.2623 1.51473 18.195 1.44741 18.1276 1.44741H17.8583C17.791 1.44741 17.7237 1.51473 17.7237 1.58205C17.7237 1.64937 17.791 1.71669 17.8583 1.71669H18.1276C18.2286 1.71669 18.2623 1.64937 18.2623 1.58205ZM17.1178 1.58205C17.1178 1.51473 17.0505 1.44741 16.9832 1.44741H16.3773C16.31 1.44741 16.2426 1.51473 16.2426 1.58205C16.2426 1.64937 16.31 1.71669 16.3773 1.71669H16.9832C17.0505 1.71669 17.1178 1.64937 17.1178 1.58205ZM15.6031 1.58205C15.6031 1.51473 15.5358 1.44741 15.4684 1.44741H14.8626C14.8289 1.44741 14.7616 1.51473 14.7616 1.58205C14.7616 1.64937 14.8289 1.71669 14.8962 1.71669H15.5021C15.5694 1.71669 15.6031 1.64937 15.6031 1.58205ZM14.122 1.58205C14.122 1.51473 14.0547 1.44741 13.9874 1.44741H13.4151C13.3478 1.44741 13.2805 1.51473 13.2805 1.58205C13.2805 1.64937 13.3478 1.71669 13.4151 1.71669H14.021C14.0547 1.71669 14.122 1.64937 14.122 1.58205ZM10.554 1.58205C10.554 1.51473 10.4867 1.44741 10.4194 1.44741H9.81346C9.7798 1.44741 9.71248 1.51473 9.71248 1.58205C9.71248 1.64937 9.7798 1.71669 9.84712 1.71669H10.453C10.5203 1.71669 10.554 1.64937 10.554 1.58205ZM9.07293 1.58205C9.07293 1.51473 9.00561 1.44741 8.93829 1.44741H8.3324C8.26508 1.44741 8.19776 1.51473 8.19776 1.58205C8.19776 1.64937 8.26508 1.71669 8.3324 1.71669H8.93829C9.00561 1.71669 9.07293 1.64937 9.07293 1.58205ZM7.5582 1.58205C7.5582 1.51473 7.49088 1.44741 7.42356 1.44741H6.81767C6.75035 1.44741 6.68303 1.51473 6.68303 1.58205C6.68303 1.64937 6.75035 1.71669 6.81767 1.71669H7.42356C7.52454 1.71669 7.5582 1.64937 7.5582 1.58205ZM6.07714 1.58205C6.07714 1.51473 6.00982 1.44741 5.9425 1.44741H5.33661C5.26928 1.44741 5.20196 1.51473 5.20196 1.58205C5.20196 1.64937 5.26928 1.71669 5.33661 1.71669H5.9425C6.00982 1.71669 6.07714 1.64937 6.07714 1.58205ZM9.88078 22.2833C9.84712 22.2496 9.81346 22.2496 9.74614 22.2496C8.3324 22.7209 6.81767 22.7209 5.40393 22.2496C5.37027 22.2496 5.30295 22.2496 5.26928 22.2833C5.23562 22.317 5.20196 22.3506 5.20196 22.3843C5.20196 22.7882 5.23562 23.2258 5.30295 23.6297C5.30295 23.6971 5.33661 23.7307 5.40393 23.7307C6.1108 23.899 6.81767 24 7.5582 24C8.29874 24 9.00561 23.899 9.71248 23.7307C9.7798 23.7307 9.81346 23.6634 9.81346 23.6297C9.84712 23.2258 9.88078 22.7882 9.88078 22.3843C9.91445 22.3506 9.91445 22.2833 9.88078 22.2833ZM18.1276 22.2833C18.094 22.2496 18.0603 22.2496 17.993 22.2496C16.5792 22.7209 15.0645 22.7209 13.6508 22.2496C13.6171 22.2496 13.5498 22.2496 13.5161 22.2833C13.4825 22.317 13.4488 22.3506 13.4488 22.3843C13.4488 22.7882 13.4825 23.2258 13.5161 23.6297C13.5161 23.6971 13.5498 23.7307 13.6171 23.7307C14.324 23.9327 15.0309 24 15.7714 24C16.5119 24 17.2188 23.899 17.9257 23.7307C17.993 23.7307 18.0266 23.6634 18.0266 23.6297C18.094 23.2258 18.1276 22.7882 18.1276 22.3843C18.195 22.3506 18.1613 22.2833 18.1276 22.2833ZM6.88499 2.62553C6.75035 2.62553 6.64937 2.72651 6.64937 2.86115C6.64937 3.73633 5.97616 4.4432 5.10098 4.51052V4.98177C6.21178 4.91445 7.08696 4.00561 7.08696 2.86115C7.12062 2.72651 7.01964 2.62553 6.88499 2.62553ZM18.3296 4.47686C17.4544 4.4432 16.7812 3.73633 16.7812 2.86115C16.7812 2.72651 16.6802 2.62553 16.5456 2.62553C16.4109 2.62553 16.31 2.72651 16.31 2.86115C16.31 3.97195 17.1851 4.91445 18.2959 4.98177L18.3296 4.47686ZM18.4306 0H5V0.706872H18.4306V0Z"
        fill="#0096D1" />
    <path
        d="M11.4619 2.25493C11.7408 2.25493 11.9668 2.02888 11.9668 1.75003C11.9668 1.47117 11.7408 1.24512 11.4619 1.24512C11.1831 1.24512 10.957 1.47117 10.957 1.75003C10.957 2.02888 11.1831 2.25493 11.4619 2.25493Z"
        fill="#C4F0F2" />
    <path
        d="M11.4619 2.25493C11.7408 2.25493 11.9668 2.02888 11.9668 1.75003C11.9668 1.47117 11.7408 1.24512 11.4619 1.24512C11.1831 1.24512 10.957 1.47117 10.957 1.75003C10.957 2.02888 11.1831 2.25493 11.4619 2.25493Z"
        stroke="white" />
</svg>
    