<svg width="24" height="24" viewBox="0 0 24 24" fill="none" xmlns="http://www.w3.org/2000/svg">
    <path
        d="M22.2105 24H1.78952C0.801206 24 0 23.1988 0 22.2105V1.78952C0 0.801206 0.801206 0 1.78952 0H22.2105C23.1988 0 24 0.801206 24 1.78952V22.2105C24 23.1988 23.1988 24 22.2105 24Z"
        fill="#464A4C" />
    <path
        d="M22.2105 24H1.78952C0.801206 24 0 23.1988 0 22.2105V1.78952C0 0.801206 0.801206 0 1.78952 0H22.2105C23.1988 0 24 0.801206 24 1.78952V22.2105C24 23.1988 23.1988 24 22.2105 24Z"
        stroke="white" />
    <path
        d="M11.9992 1.41406C6.07011 1.41406 1.26367 6.2205 1.26367 12.1496C1.26367 18.0786 6.07011 22.8851 11.9992 22.8851C17.9282 22.8851 22.7347 18.0787 22.7347 12.1496C22.7347 6.22055 17.9282 1.41406 11.9992 1.41406ZM11.9992 14.3906C10.7615 14.3906 9.75816 13.3873 9.75816 12.1496C9.75816 10.9119 10.7615 9.9086 11.9992 9.9086C13.2369 9.9086 14.2402 10.9119 14.2402 12.1496C14.2402 13.3873 13.2369 14.3906 11.9992 14.3906Z"
        fill="#FFD469" />
    <path
        d="M11.9992 1.41406C6.07011 1.41406 1.26367 6.2205 1.26367 12.1496C1.26367 18.0786 6.07011 22.8851 11.9992 22.8851C17.9282 22.8851 22.7347 18.0787 22.7347 12.1496C22.7347 6.22055 17.9282 1.41406 11.9992 1.41406ZM11.9992 14.3906C10.7615 14.3906 9.75816 13.3873 9.75816 12.1496C9.75816 10.9119 10.7615 9.9086 11.9992 9.9086C13.2369 9.9086 14.2402 10.9119 14.2402 12.1496C14.2402 13.3873 13.2369 14.3906 11.9992 14.3906Z"
        stroke="white" />
    <path
        d="M7.28251 10.6375L2.63086 9.06314C3.5717 6.28327 5.70619 4.0083 8.34061 2.97754L10.1299 7.5508C8.84824 8.05231 7.75718 9.23503 7.28251 10.6375ZM13.8717 16.7472L15.661 21.3204C18.2954 20.2897 20.4299 18.0147 21.3708 15.2349L16.7191 13.6605C16.2445 15.0629 15.1534 16.2457 13.8717 16.7472Z"
        fill="#FFB636" />
    <path
        d="M8.20745 8.98148C8.61318 8.48851 9.10117 8.07533 9.63698 7.78151C9.91062 7.63143 10.1736 7.66618 10.0599 7.37548L8.50889 3.41136C8.29211 2.85725 8.05385 3.08746 7.72925 3.24284C6.56517 3.79998 5.51761 4.60511 4.65039 5.58602L8.20745 8.98148Z"
        fill="#FFE1AB" />
    <path
        d="M15.7923 15.3174C15.2655 15.9575 14.5999 16.4631 13.8711 16.7476L15.6605 21.3209C17.0693 20.7704 18.3332 19.8624 19.3494 18.7129L15.7923 15.3174Z"
        fill="#FFE1AB" />
    <path
        d="M12.0001 16.2353C9.74707 16.2353 7.91406 14.4023 7.91406 12.1493C7.91406 9.89624 9.74707 8.06323 12.0001 8.06323C14.2532 8.06323 16.0862 9.89624 16.0862 12.1493C16.0862 14.4023 14.2532 16.2353 12.0001 16.2353ZM12.0001 9.07769C10.3064 9.07769 8.92852 10.4556 8.92852 12.1493C8.92852 13.843 10.3064 15.2209 12.0001 15.2209C13.6939 15.2209 15.0717 13.843 15.0717 12.1493C15.0717 10.4556 13.6939 9.07769 12.0001 9.07769Z"
        fill="#F2A74E" />
    <path
        d="M16.25 9.38452H22.5686C23.3593 9.38452 24.0002 10.0255 24.0002 10.8161V13.423C24.0002 14.2136 23.3593 14.8546 22.5686 14.8546H16.25C15.4593 14.8546 14.8184 14.2136 14.8184 13.423V10.8161C14.8184 10.0255 15.4593 9.38452 16.25 9.38452Z"
        fill="#EDEDED" />
</svg>
    