<svg width="24" height="24" viewBox="0 0 24 24" fill="none" xmlns="http://www.w3.org/2000/svg">
    <path
        d="M23.1485 6.64827L19.0442 2.544C18.6105 2.04348 18.0098 1.74316 17.3091 1.74316H6.36437C5.66364 1.74316 5.02965 2.04348 4.62923 2.544L0.491589 6.64827C0.258012 6.88185 0.258012 7.28227 0.491589 7.51584L3.42798 10.4522C3.66156 10.6858 4.06197 10.6858 4.29555 10.4522L4.96291 9.78487V22.4314C4.96291 22.8318 6.76479 23.9997 11.77 23.9997C16.7752 23.9997 18.5771 22.8318 18.5771 22.4314V9.68477L19.3446 10.4522C19.5781 10.6858 19.9786 10.6858 20.2121 10.4522L23.1485 7.51584C23.3821 7.31563 23.3821 6.91522 23.1485 6.64827Z"
        fill="#76DFFF" />
    <path
        d="M23.1485 6.64827L19.0442 2.544C18.6105 2.04348 18.0098 1.74316 17.3091 1.74316H6.36437C5.66364 1.74316 5.02965 2.04348 4.62923 2.544L0.491589 6.64827C0.258012 6.88185 0.258012 7.28227 0.491589 7.51584L3.42798 10.4522C3.66156 10.6858 4.06197 10.6858 4.29555 10.4522L4.96291 9.78487V22.4314C4.96291 22.8318 6.76479 23.9997 11.77 23.9997C16.7752 23.9997 18.5771 22.8318 18.5771 22.4314V9.68477L19.3446 10.4522C19.5781 10.6858 19.9786 10.6858 20.2121 10.4522L23.1485 7.51584C23.3821 7.31563 23.3821 6.91522 23.1485 6.64827Z"
        stroke="white" />
    <path
        d="M9.80232 1.50977H13.7398C14.3404 1.50977 14.8409 1.87681 14.8409 2.34397V2.87786C14.8409 3.34501 12.7053 5.61404 12.1047 5.61404H11.4374C10.8367 5.61404 8.70117 3.31164 8.70117 2.87786V2.34397C8.73454 1.87681 9.20169 1.50977 9.80232 1.50977Z"
        fill="#0096D1" />
    <path
        d="M9.80232 1.50977H13.7398C14.3404 1.50977 14.8409 1.87681 14.8409 2.34397V2.87786C14.8409 3.34501 12.7053 5.61404 12.1047 5.61404H11.4374C10.8367 5.61404 8.70117 3.31164 8.70117 2.87786V2.34397C8.73454 1.87681 9.20169 1.50977 9.80232 1.50977Z"
        stroke="white" />
    <path
        d="M15.2408 0.475495C12.8383 -0.158498 10.7695 -0.158498 8.36699 0.475495C8.30025 0.508863 8.26688 1.61001 8.40036 2.07716C8.43372 2.1439 8.50046 2.17727 8.5672 2.17727C10.7028 1.61001 12.905 1.61001 15.0406 2.17727C15.1073 2.21064 15.1741 2.1439 15.2074 2.07716C15.3409 1.61001 15.3409 0.508863 15.2408 0.475495Z"
        fill="#0074A8" />
    <path
        d="M15.2408 0.475495C12.8383 -0.158498 10.7695 -0.158498 8.36699 0.475495C8.30025 0.508863 8.26688 1.61001 8.40036 2.07716C8.43372 2.1439 8.50046 2.17727 8.5672 2.17727C10.7028 1.61001 12.905 1.61001 15.0406 2.17727C15.1073 2.21064 15.1741 2.1439 15.2074 2.07716C15.3409 1.61001 15.3409 0.508863 15.2408 0.475495Z"
        stroke="white" />
    <path
        d="M4.79666 10.1192L3.96246 10.9868C3.96246 11.0202 3.92909 11.0202 3.89572 11.0202C3.86236 11.0202 3.82899 11.0202 3.82899 10.9868C3.82899 10.9868 2.99479 10.7199 1.66006 9.35177C0.325339 7.98367 0.0250261 7.28294 0.0250261 7.28294C-0.00834202 7.24958 -0.00834202 7.18284 0.0250261 7.1161L0.859228 6.24853C0.892596 6.21517 0.925964 6.21517 0.925964 6.21517C0.959333 6.21517 0.992701 6.21517 0.992701 6.24853C0.992701 6.24853 1.39312 7.1161 2.59437 8.31736C3.79562 9.51861 4.79666 9.95239 4.79666 9.95239C4.8634 10.0191 4.8634 10.0859 4.79666 10.1192ZM18.8446 10.1192L19.6788 10.9868C19.7122 11.0202 19.7122 11.0202 19.7456 11.0202C19.7789 11.0202 19.8123 11.0202 19.8123 10.9868C19.8123 10.9868 20.6465 10.7199 21.9812 9.35177C23.316 7.98367 23.6163 7.28294 23.6163 7.28294C23.6496 7.24958 23.6496 7.18284 23.6163 7.1161L22.7821 6.24853C22.7487 6.21517 22.7153 6.21517 22.7153 6.21517C22.682 6.21517 22.6486 6.21517 22.6486 6.24853C22.6486 6.24853 22.2482 7.1161 21.0469 8.31736C19.8457 9.51861 18.8446 9.98576 18.8446 9.98576C18.8113 10.0191 18.8113 10.0859 18.8446 10.1192ZM15.3076 0.509223C15.2409 0.475855 15.1741 0.475855 15.1074 0.542591L12.0042 5.3476C11.9374 5.4477 11.9374 5.5478 11.9374 5.64791H11.7039C11.7372 5.5478 11.7039 5.4477 11.6371 5.3476L8.50052 0.542591C8.46715 0.475855 8.36705 0.475855 8.30031 0.509223C7.56621 1.00974 7.36601 2.01079 7.83316 2.74488L10.269 6.51548C10.3024 6.54885 10.3358 6.58222 10.3691 6.58222H10.4025C10.4359 6.58222 10.4692 6.58222 10.4692 6.54885L11.537 5.84812C11.6038 5.81475 11.6371 5.74801 11.6705 5.68128V10.553C11.6705 10.6198 11.7372 10.6865 11.804 10.6865C11.8707 10.6865 11.9374 10.6198 11.9374 10.553V5.68128C11.9708 5.74801 12.0042 5.81475 12.0709 5.88148L13.1387 6.58222C13.1721 6.58222 13.1721 6.61558 13.2054 6.61558H13.2388C13.2722 6.61558 13.3055 6.58222 13.3389 6.54885L15.7748 2.77825C16.2753 2.01079 16.0751 1.00974 15.3076 0.509223Z"
        fill="#00B1FF" />
    <path
        d="M13.072 7.34947C13.072 7.54968 12.9051 7.71652 12.7049 7.71652C12.5047 7.71652 12.3379 7.54968 12.3379 7.34947C12.3379 7.14926 12.5047 6.98242 12.7049 6.98242C12.9051 6.98242 13.072 7.14926 13.072 7.34947ZM12.7049 8.55072C12.5047 8.55072 12.3379 8.71756 12.3379 8.91777C12.3379 9.11798 12.5047 9.28482 12.7049 9.28482C12.9051 9.28482 13.072 9.11798 13.072 8.91777C13.072 8.71756 12.9051 8.55072 12.7049 8.55072ZM12.7049 10.0857C12.5047 10.0857 12.3379 10.2525 12.3379 10.4527C12.3379 10.6529 12.5047 10.8198 12.7049 10.8198C12.9051 10.8198 13.072 10.6529 13.072 10.4527C13.072 10.2525 12.9051 10.0857 12.7049 10.0857Z"
        fill="white" />
</svg>
    