<svg width="24" height="24" viewBox="0 0 24 24" fill="none" xmlns="http://www.w3.org/2000/svg">
    <path
        d="M0.876953 9.69595C0.876953 9.69595 1.34885 8.41509 2.02299 6.52751C2.52859 5.14552 4.11281 4.37027 4.95548 4.0332C5.22514 3.93208 5.5285 4.06691 5.62962 4.37027C5.65428 4.44972 5.6796 4.53652 5.70672 4.62946C6.01321 5.67992 6.54842 7.5143 8.93289 8.38138C12.2094 9.56993 13.1593 7.26856 13.3581 6.78706C13.3679 6.76332 13.3759 6.744 13.3822 6.72975C13.517 6.42639 14.09 5.95449 14.899 7.26906C15.3599 8.03722 15.6129 8.72879 15.8949 9.49962C16.1079 10.0817 16.3374 10.7091 16.6855 11.4487C16.8489 11.7959 16.9669 12.1446 17.0845 12.492C17.5493 13.8648 18.0081 15.2201 21.2359 16.4036C21.258 16.4116 21.2815 16.4201 21.3063 16.429C22.1131 16.7192 24.2731 17.4962 23.292 20.1451C23.292 20.1451 19.0786 19.6395 16.2136 18.5946C13.3485 17.5496 10.7194 15.8306 9.70815 14.1115C8.69694 12.3925 0.876953 9.69595 0.876953 9.69595Z"
        fill="#8E6049" />
    <path
        d="M0.876953 9.69595C0.876953 9.69595 1.34885 8.41509 2.02299 6.52751C2.52859 5.14552 4.11281 4.37027 4.95548 4.0332C5.22514 3.93208 5.5285 4.06691 5.62962 4.37027C5.65428 4.44972 5.6796 4.53652 5.70672 4.62946C6.01321 5.67992 6.54842 7.5143 8.93289 8.38138C12.2094 9.56993 13.1593 7.26856 13.3581 6.78706C13.3679 6.76332 13.3759 6.744 13.3822 6.72975C13.517 6.42639 14.09 5.95449 14.899 7.26906C15.3599 8.03722 15.6129 8.72879 15.8949 9.49962C16.1079 10.0817 16.3374 10.7091 16.6855 11.4487C16.8489 11.7959 16.9669 12.1446 17.0845 12.492C17.5493 13.8648 18.0081 15.2201 21.2359 16.4036C21.258 16.4116 21.2815 16.4201 21.3063 16.429C22.1131 16.7192 24.2731 17.4962 23.292 20.1451C23.292 20.1451 19.0786 19.6395 16.2136 18.5946C13.3485 17.5496 10.7194 15.8306 9.70815 14.1115C8.69694 12.3925 0.876953 9.69595 0.876953 9.69595Z"
        stroke="white" />
    <path
        d="M14.9331 10.1004C14.8657 10.1004 14.7983 10.0667 14.7646 9.99928C14.7309 9.89816 14.7646 9.79704 14.8657 9.76333L15.8769 9.32514C15.978 9.29143 16.0792 9.32514 16.1129 9.42626C16.1466 9.52738 16.1129 9.6285 16.0117 9.66221L15.0005 10.1004H14.9331Z"
        fill="#2B3B47" />
    <path
        d="M14.9331 10.1004C14.8657 10.1004 14.7983 10.0667 14.7646 9.99928C14.7309 9.89816 14.7646 9.79704 14.8657 9.76333L15.8769 9.32514C15.978 9.29143 16.0792 9.32514 16.1129 9.42626C16.1466 9.52738 16.1129 9.6285 16.0117 9.66221L15.0005 10.1004H14.9331Z"
        stroke="white" />
    <path
        d="M14.5288 9.25762C14.4614 9.25762 14.394 9.22392 14.3603 9.1565C14.3266 9.05538 14.3603 8.95426 14.4614 8.92056L15.4726 8.48237C15.5737 8.44866 15.6749 8.48237 15.7086 8.58349C15.7423 8.68461 15.7086 8.78573 15.6075 8.81944L14.5962 9.25762C14.5962 9.25762 14.5625 9.25762 14.5288 9.25762Z"
        fill="#2B3B47" />
    <path
        d="M15.3042 10.8753C15.2368 10.8753 15.1694 10.8416 15.1357 10.7742C15.102 10.673 15.1357 10.5719 15.2368 10.5382L16.1469 10.1337C16.248 10.1 16.3491 10.1337 16.3828 10.2349C16.4165 10.336 16.3828 10.4371 16.2817 10.4708L15.3716 10.8753C15.3379 10.8753 15.3042 10.8753 15.3042 10.8753Z"
        fill="#2B3B47" />
    <path
        d="M15.6421 11.6511C15.5747 11.6511 15.5073 11.6174 15.4736 11.55C15.4399 11.4489 15.4736 11.3478 15.5747 11.3141L16.4511 10.9433C16.5522 10.9096 16.6533 10.9433 16.687 11.0444C16.7207 11.1455 16.687 11.2467 16.5859 11.2804L15.7095 11.6511C15.6758 11.6511 15.6758 11.6511 15.6421 11.6511Z"
        fill="#2B3B47" />
    <path
        d="M13.0793 14.2463C13.6861 14.4822 14.3265 14.5496 14.8995 14.5159C16.0118 14.4822 16.8882 14.0103 17.3264 13.3025C17.259 13.1339 17.1916 12.9654 17.1579 12.7969C16.8882 13.5721 16.0455 14.044 14.8995 14.1114C13.6524 14.1788 12.1018 13.6395 11.5625 12.4935C10.3491 9.89807 8.52892 7.53859 4.0122 9.66212C3.91108 9.69583 3.87737 9.83066 3.91108 9.89807C3.94478 9.96548 4.07961 10.0329 4.14703 9.99919C7.51771 8.41497 9.57383 9.19023 11.1918 12.662C11.5962 13.471 12.3041 13.9766 13.0793 14.2463Z"
        fill="#68442A" />
    <path
        d="M16.9541 18.4596C17.0553 18.4933 17.1564 18.4596 17.1901 18.3584C17.6283 17.145 18.3361 15.6956 18.9428 15.2911C18.808 15.2237 18.7069 15.1563 18.5721 15.0889C17.7968 15.763 17.089 17.4483 16.8193 18.2236C16.7856 18.291 16.853 18.4258 16.9541 18.4596Z"
        fill="#68442A" />
    <path
        d="M23.831 19.7747C23.7973 19.7747 19.9547 19.2017 18.2357 18.5612L15.3032 17.4826C12.1684 16.3366 11.3932 15.3591 10.4831 14.2131C9.26965 12.6963 7.88766 10.9435 1.24742 8.5166L0.87664 9.52781V9.56151L0.033969 11.8873C-0.0671516 12.1906 0.0676758 12.494 0.303624 12.5951L6.43827 14.8198C6.70792 14.9209 7.01129 14.7524 7.11241 14.449L7.68542 12.8985C7.68542 12.8985 7.68542 12.8985 7.68542 12.8648C8.62922 13.6063 9.13482 14.2468 9.64042 14.8535C10.6179 16.0669 11.528 17.213 14.9324 18.4601L17.8649 19.5387C19.6851 20.2129 23.4939 20.7859 23.6625 20.7859C23.9995 20.6174 24.1344 19.9769 23.831 19.7747Z"
        fill="#2B3B47" />
</svg>
    