<svg width="24" height="24" viewBox="0 0 24 24" fill="none" xmlns="http://www.w3.org/2000/svg">
    <path
        d="M9.86733 5.9043C5.5483 5.9043 2.04688 6.80942 2.04688 7.92595C2.04688 7.93036 2.04749 7.93474 2.0481 7.93913C2.04861 7.9427 2.04911 7.94627 2.04928 7.94987C2.09904 9.05533 5.57928 9.94756 9.86733 9.94756C14.1556 9.94756 17.6358 9.05524 17.6854 7.94977C17.6856 7.94627 17.6861 7.94281 17.6865 7.93934C17.6871 7.93489 17.6877 7.93045 17.6877 7.92595C17.6877 6.80938 14.1865 5.9043 9.86733 5.9043Z"
        fill="#D1CFC3" />
    <path
        d="M9.86733 5.9043C5.5483 5.9043 2.04688 6.80942 2.04688 7.92595C2.04688 7.93036 2.04749 7.93474 2.0481 7.93913C2.04861 7.9427 2.04911 7.94627 2.04928 7.94987C2.09904 9.05533 5.57928 9.94756 9.86733 9.94756C14.1556 9.94756 17.6358 9.05524 17.6854 7.94977C17.6856 7.94627 17.6861 7.94281 17.6865 7.93934C17.6871 7.93489 17.6877 7.93045 17.6877 7.92595C17.6877 6.80938 14.1865 5.9043 9.86733 5.9043Z"
        stroke="white" />
    <path
        d="M9.86754 7.05103C13.6938 7.05103 16.7956 7.85285 16.7956 8.84197C16.7956 9.83109 13.6938 10.6329 9.86754 10.6329C6.04124 10.6329 2.93945 9.83109 2.93945 8.84197C2.93945 7.85285 6.04124 7.05103 9.86754 7.05103Z"
        fill="#8E6049" />
    <path
        d="M9.86754 7.05103C13.6938 7.05103 16.7956 7.85285 16.7956 8.84197C16.7956 9.83109 13.6938 10.6329 9.86754 10.6329C6.04124 10.6329 2.93945 9.83109 2.93945 8.84197C2.93945 7.85285 6.04124 7.05103 9.86754 7.05103Z"
        stroke="white" />
    <path
        d="M18.144 9.51111C17.9924 9.51111 17.8425 9.51898 17.6948 9.53419L17.6879 7.98638C17.6879 7.9783 17.6872 7.97046 17.6865 7.96261C17.6861 7.95824 17.6857 7.95387 17.6854 7.94946C17.6358 9.05497 14.1556 9.94725 9.86735 9.94725C5.5793 9.94725 2.09906 9.05497 2.0493 7.94956C2.04903 7.95412 2.04864 7.95863 2.04824 7.96314C2.04757 7.97081 2.04689 7.97847 2.04689 7.98633L2 18.4585C2 18.4585 1.98851 24 9.78491 24C14.6245 24 16.5189 21.8615 17.2599 20.2393C17.2826 20.2399 17.3053 20.2405 17.3275 20.2405C20.103 20.2405 21.3389 18.7707 21.8869 17.5377C22.4958 16.1677 22.4958 14.6278 22.4958 13.6088C22.4958 11.2728 20.625 9.51111 18.144 9.51111ZM20.1367 16.7598C19.8605 17.3811 19.3122 18.1911 17.7342 18.3099L17.7035 11.4672C17.8465 11.441 17.9936 11.4265 18.1441 11.4265C18.8318 11.4265 19.4571 11.6476 19.9048 12.0489C20.3469 12.4453 20.5805 12.9847 20.5805 13.6089V13.6093C20.5805 14.4664 20.5804 15.7615 20.1367 16.7598Z"
        fill="#E5E4DF" />
    <path
        d="M18.144 9.51111C17.9924 9.51111 17.8425 9.51898 17.6948 9.53419L17.6879 7.98638C17.6879 7.9783 17.6872 7.97046 17.6865 7.96261C17.6861 7.95824 17.6857 7.95387 17.6854 7.94946C17.6358 9.05497 14.1556 9.94725 9.86735 9.94725C5.5793 9.94725 2.09906 9.05497 2.0493 7.94956C2.04903 7.95412 2.04864 7.95863 2.04824 7.96314C2.04757 7.97081 2.04689 7.97847 2.04689 7.98633L2 18.4585C2 18.4585 1.98851 24 9.78491 24C14.6245 24 16.5189 21.8615 17.2599 20.2393C17.2826 20.2399 17.3053 20.2405 17.3275 20.2405C20.103 20.2405 21.3389 18.7707 21.8869 17.5377C22.4958 16.1677 22.4958 14.6278 22.4958 13.6088C22.4958 11.2728 20.625 9.51111 18.144 9.51111ZM20.1367 16.7598C19.8605 17.3811 19.3122 18.1911 17.7342 18.3099L17.7035 11.4672C17.8465 11.441 17.9936 11.4265 18.1441 11.4265C18.8318 11.4265 19.4571 11.6476 19.9048 12.0489C20.3469 12.4453 20.5805 12.9847 20.5805 13.6089V13.6093C20.5805 14.4664 20.5804 15.7615 20.1367 16.7598Z"
        stroke="white" />
    <path
        d="M9.09381 5.8988e-06C9.09381 5.8988e-06 9.13863 0.000523816 9.22253 0.00151256C9.30305 0.00429046 9.45734 0.022135 9.62133 0.0719959C9.78819 0.126189 9.99427 0.215411 10.1917 0.381661C10.3915 0.543533 10.5816 0.778054 10.7098 1.07336C10.839 1.36706 10.9096 1.71844 10.8824 2.09318C10.8564 2.46589 10.7302 2.86958 10.4632 3.21733C10.2041 3.57008 9.78946 3.83342 9.35324 3.94496C8.9253 4.03347 8.75575 4.07571 8.50937 4.21658C8.28572 4.35086 8.09423 4.53364 7.95214 4.75686C7.88024 4.8676 7.82351 4.98893 7.77303 5.11252C7.72774 5.23828 7.69026 5.36734 7.66827 5.49874C7.62208 5.76081 7.62114 6.02725 7.66611 6.27227C7.70843 6.51786 7.78989 6.74348 7.89729 6.93544C8.00445 7.12773 8.13576 7.28823 8.27202 7.41517C8.4079 7.54347 8.55132 7.63189 8.67246 7.70459C8.7978 7.76749 8.9003 7.82159 8.97469 7.84579C9.04828 7.87583 9.08759 7.89184 9.08759 7.89184L9.10205 7.89768C9.17272 7.92649 9.20657 8.0071 9.17776 8.07772C9.15563 8.13201 9.10257 8.16454 9.04729 8.16365C9.04729 8.16365 9.00007 8.16275 8.91169 8.16106C8.82256 8.16031 8.69134 8.14886 8.52424 8.1151C8.36035 8.07377 8.15238 8.02127 7.939 7.89706C7.72374 7.77926 7.49251 7.60849 7.29165 7.37067C7.09037 7.13427 6.91918 6.836 6.80816 6.49578C6.69582 6.15598 6.64728 5.77442 6.6799 5.38075C6.70924 4.98756 6.82605 4.57987 7.04188 4.20792C7.25239 3.83328 7.57962 3.5084 7.95863 3.27939C8.05699 3.22995 8.15266 3.17171 8.25493 3.1332C8.35602 3.09209 8.4555 3.0508 8.57307 3.02057C8.62849 3.00504 8.68894 2.98743 8.74021 2.97533L8.86941 2.95277C8.94809 2.9394 9.02648 2.92603 9.10454 2.91275C9.34066 2.8588 9.54265 2.75507 9.69515 2.58769C9.84954 2.42417 9.95675 2.2067 10.0056 1.98023C10.057 1.75423 10.053 1.52183 10.0078 1.318C9.96291 1.11324 9.88146 0.932486 9.77623 0.792414C9.67114 0.652577 9.55188 0.545134 9.44072 0.468483C9.32169 0.396022 9.24179 0.347008 9.16081 0.316969C9.0827 0.286271 9.04098 0.269886 9.04098 0.269886C8.96923 0.241636 8.93391 0.160559 8.96216 0.0887575C8.98382 0.0331053 9.03759 -0.000512015 9.09381 5.8988e-06ZM12.1393 2.68873C12.1055 2.6343 12.034 2.61759 11.9796 2.65135C11.9796 2.65135 11.9582 2.66467 11.9179 2.68958C11.8981 2.70234 11.8736 2.71811 11.8449 2.73657C11.8163 2.75295 11.7827 2.77777 11.7451 2.81218C11.7081 2.845 11.6656 2.88163 11.6217 2.9233C11.5829 2.96713 11.541 3.01455 11.4961 3.06516C11.4533 3.11789 11.4164 3.18023 11.3728 3.24394C11.3313 3.30872 11.2985 3.38274 11.2587 3.45845C11.1951 3.61528 11.1375 3.79358 11.1144 3.98997C11.0827 4.18607 11.0984 4.3978 11.1338 4.61363C11.1708 4.83064 11.2581 5.04562 11.3744 5.24902C11.4382 5.34747 11.5023 5.44775 11.5837 5.53566C11.6222 5.58138 11.6609 5.62733 11.7064 5.66636L11.8243 5.77253L11.9353 5.87249C11.9517 5.88831 11.9773 5.90761 11.9859 5.92056L12.0179 5.96049C12.0629 6.00555 12.1069 6.07306 12.1516 6.13658C12.2292 6.27044 12.2944 6.40966 12.333 6.55501C12.3683 6.69993 12.396 6.84546 12.3942 6.98629C12.3996 7.1274 12.381 7.26092 12.359 7.3856C12.3413 7.4453 12.3331 7.50769 12.3137 7.56263C12.293 7.61682 12.2762 7.67116 12.2554 7.72003C12.2332 7.76919 12.2124 7.81514 12.1931 7.8577C12.1693 7.89763 12.147 7.93511 12.1277 7.97056C12.0908 8.04326 12.0466 8.08879 12.0238 8.12815C11.9985 8.16586 11.985 8.18601 11.985 8.18601L11.9782 8.19618C11.9565 8.22886 11.9517 8.27161 11.9691 8.30993C11.9961 8.36874 12.0656 8.39464 12.1245 8.36775C12.1245 8.36775 12.149 8.3565 12.1938 8.33169C12.2374 8.30556 12.3105 8.27552 12.3844 8.21252C12.4231 8.1829 12.4671 8.14995 12.5115 8.11021C12.5529 8.06689 12.5976 8.02004 12.6453 7.96995C12.734 7.86298 12.8211 7.73006 12.898 7.57252C12.966 7.41286 13.0277 7.22975 13.0483 7.02796C13.0784 6.82701 13.0635 6.60934 13.02 6.39031C12.9753 6.17043 12.881 5.95352 12.7564 5.75191C12.6883 5.65478 12.6227 5.55732 12.5272 5.46108L12.4592 5.39041C12.4356 5.3655 12.4199 5.35599 12.3997 5.338L12.2851 5.24205L12.1773 5.15231C12.1443 5.12952 12.1176 5.10038 12.0901 5.07189C12.0309 5.01845 11.9852 4.9538 11.9364 4.89161C11.8505 4.75959 11.7783 4.61843 11.732 4.47026C11.6887 4.32209 11.6617 4.17063 11.662 4.02495C11.654 3.87847 11.6767 3.7401 11.7032 3.61264C11.722 3.55101 11.734 3.48806 11.7556 3.43227C11.7792 3.37765 11.797 3.32195 11.8219 3.27412C11.8471 3.22553 11.8707 3.18009 11.8925 3.13805C11.9176 3.10014 11.9407 3.06535 11.9616 3.03395C11.9967 2.96869 12.0569 2.91525 12.0833 2.87984C12.1136 2.84354 12.1298 2.82419 12.1298 2.82419C12.1608 2.7869 12.1663 2.73228 12.1393 2.68873Z"
        fill="#E5E4DF" />
</svg>
    