<svg width="24" height="24" viewBox="0 0 24 24" fill="none" xmlns="http://www.w3.org/2000/svg">
    <path
        d="M16.1292 0H14.1486C13.9522 0 13.793 0.159244 13.793 0.355632V0.699213C13.793 0.895601 13.9522 1.05485 14.1486 1.05485H16.1292C16.3256 1.05485 16.4848 0.895601 16.4848 0.699213V0.355632C16.4848 0.159195 16.3256 0 16.1292 0Z"
        fill="#8F9799" />
    <path
        d="M16.1292 0H14.1486C13.9522 0 13.793 0.159244 13.793 0.355632V0.699213C13.793 0.895601 13.9522 1.05485 14.1486 1.05485H16.1292C16.3256 1.05485 16.4848 0.895601 16.4848 0.699213V0.355632C16.4848 0.159195 16.3256 0 16.1292 0Z"
        stroke="white" />
    <path
        d="M18.3919 1.82585V22.5778C18.3919 23.3634 17.7551 24.0003 16.9694 24.0003H6.42253C5.63688 24.0003 5 23.3634 5 22.5778V1.82585C5 1.0402 5.63688 0.40332 6.42253 0.40332H16.9694C17.7551 0.40332 18.3919 1.0402 18.3919 1.82585Z"
        fill="#464A4C" />
    <path
        d="M18.3919 1.82585V22.5778C18.3919 23.3634 17.7551 24.0003 16.9694 24.0003H6.42253C5.63688 24.0003 5 23.3634 5 22.5778V1.82585C5 1.0402 5.63688 0.40332 6.42253 0.40332H16.9694C17.7551 0.40332 18.3919 1.0402 18.3919 1.82585Z"
        stroke="white" />
    <path
        d="M17.4086 2.69173V19.9779C17.4086 20.3707 17.0901 20.6892 16.6973 20.6892H6.69564C6.30281 20.6892 5.98438 20.3707 5.98438 19.9779V2.69173C5.98438 2.29891 6.30281 1.98047 6.69564 1.98047H16.6973C17.0901 1.98047 17.4086 2.29891 17.4086 2.69173Z"
        fill="#CAD6D8" />
    <path
        d="M17.4086 2.69173V19.9779C17.4086 20.3707 17.0901 20.6892 16.6973 20.6892H6.69564C6.30281 20.6892 5.98438 20.3707 5.98438 19.9779V2.69173C5.98438 2.29891 6.30281 1.98047 6.69564 1.98047H16.6973C17.0901 1.98047 17.4086 2.29891 17.4086 2.69173Z"
        stroke="white" />
    <path
        d="M5.98438 16.1982V2.59393C5.98438 2.2551 6.27219 1.98047 6.62728 1.98047H14.3979L5.98438 16.1982Z"
        fill="#F4F9F9" />
    <path
        d="M10.6714 22.9834H12.718C13.0715 22.9834 13.3581 22.6968 13.3581 22.3432V22.3198C13.3581 21.9663 13.0715 21.6797 12.718 21.6797H10.6714C10.3178 21.6797 10.0312 21.9663 10.0312 22.3198V22.3432C10.0312 22.6968 10.3178 22.9834 10.6714 22.9834Z"
        fill="#8F9799" />
</svg>
    