<svg width="24" height="24" viewBox="0 0 24 24" fill="none" xmlns="http://www.w3.org/2000/svg">
    <path
        d="M8.81991 9.61025L8.81997 9.61019L8.8176 9.608C8.24719 9.08212 7.43209 8.9991 6.77272 9.22201C6.1137 9.44481 5.59263 9.98084 5.63601 10.7068C5.67785 11.4068 5.4353 11.8489 5.10246 12.2183C4.95591 12.3809 4.79244 12.5288 4.62606 12.6793C4.60174 12.7013 4.57735 12.7234 4.55295 12.7456C4.36267 12.9184 4.17208 13.0974 4.00968 13.3039C3.87091 13.4803 3.7357 13.5418 3.6013 13.5371C3.46181 13.5322 3.30906 13.4558 3.13835 13.324C2.10965 12.5299 1.12203 11.7082 0.402476 10.6194C0.37715 10.5811 0.349503 10.5416 0.321642 10.5019L0.318375 10.4973C0.291429 10.4589 0.264274 10.4202 0.237973 10.3809C0.183074 10.299 0.133657 10.2173 0.100525 10.1369C0.0674081 10.0565 0.0521017 9.98117 0.0612523 9.91096C0.0702147 9.84218 0.10336 9.77261 0.17785 9.70377C0.366995 9.52897 0.534645 9.33168 0.698389 9.13516C0.713487 9.11704 0.728549 9.09893 0.743592 9.08084C0.892429 8.90188 1.03935 8.72523 1.20019 8.56388C1.55237 8.21059 1.96752 7.93455 2.59699 7.8905C3.26367 7.84385 3.79138 7.58516 4.16153 7.16639C4.53105 6.74833 4.73952 6.17539 4.77757 5.50637C4.80775 4.976 4.91439 4.57626 5.27351 4.17909C8.11406 1.0376 13.41 0.10625 17.0624 2.13048C17.1152 2.15975 17.1735 2.18748 17.2307 2.21466C17.2502 2.2239 17.2695 2.23308 17.2884 2.24223C17.3646 2.27911 17.4363 2.31646 17.4968 2.35982C17.5571 2.40305 17.6033 2.45019 17.6311 2.50519C17.6583 2.55912 17.6702 2.62493 17.6549 2.71029C17.5838 3.10809 17.2602 3.37051 16.8302 3.41813C16.6137 3.44213 16.3964 3.43621 16.1745 3.43016C16.0741 3.42742 15.9728 3.42466 15.8701 3.42463C14.2171 3.33872 12.3802 3.86984 11.3884 4.6912C10.8602 5.12865 10.5633 5.57728 10.5233 6.0472C10.4833 6.51806 10.7027 6.99321 11.1678 7.48002L11.1678 7.48005L11.1693 7.48155L12.7507 9.01991L10.3508 11.1859L8.81991 9.61025Z"
        fill="#AAB8B9" stroke="white" stroke-width="0.117274" />
    <path
        d="M23.6506 20.3262L21.681 22.2959C21.2934 22.6835 20.6649 22.6835 20.2774 22.2959L10.4665 12.4851C10.0789 12.0975 10.0789 11.469 10.4665 11.0814L12.4362 9.11179C12.8238 8.72419 13.4522 8.72419 13.8398 9.11179L23.6506 18.9226C24.0382 19.3102 24.0382 19.9386 23.6506 20.3262Z"
        fill="#8E6049" stroke="white" stroke-width="0.117274" />
    <path
        d="M1.62376 10.5785C1.48453 10.5785 1.34553 10.5255 1.23936 10.4193C1.02704 10.207 1.02704 9.86276 1.23936 9.65044L1.934 8.9558C2.14632 8.74348 2.49052 8.74348 2.70284 8.9558C2.91516 9.16812 2.91516 9.51232 2.70284 9.72464L2.00815 10.4193L2.04962 10.4607L2.00815 10.4193C1.90198 10.5255 1.76298 10.5785 1.62376 10.5785ZM7.51293 4.26406L6.38468 5.39231C6.27851 5.49848 6.13943 5.55155 6.00024 5.55155C5.86105 5.55155 5.72201 5.49848 5.61584 5.39231C5.40352 5.17999 5.40352 4.83579 5.61584 4.62347L6.74409 3.49522C6.95641 3.2829 7.30061 3.2829 7.51293 3.49522C7.72525 3.70754 7.72525 4.05174 7.51293 4.26406Z"
        fill="#D3E2E2" stroke="white" stroke-width="0.117274" />
    <path
        d="M5.36103 9.61764C5.20688 9.61764 5.05278 9.55884 4.93517 9.44123L4.25258 8.75865C4.01737 8.52343 4.01737 8.1421 4.25258 7.90688C4.4878 7.67166 4.86913 7.67166 5.10435 7.90688L5.78693 8.58947C6.02215 8.82468 6.02215 9.20601 5.78693 9.44123C5.66928 9.55884 5.51513 9.61764 5.36103 9.61764Z"
        fill="#909999" />
</svg>
    