<svg width="24" height="24" viewBox="0 0 24 24" fill="none" xmlns="http://www.w3.org/2000/svg">
    <path
        d="M12.0351 7.53958C11.7709 7.53958 11.5566 7.32535 11.5566 7.06111C11.5566 5.34451 12.5355 4.48353 13.3992 3.72386L13.3992 3.72386C14.1362 3.07565 14.7726 2.51582 14.7726 1.47846C14.7726 1.21423 14.9869 1 15.2511 1C15.5153 1 15.7296 1.21423 15.7296 1.47846C15.7296 2.94843 14.8274 3.74205 14.0314 4.44224L14.0312 4.44238L14.0312 4.44239C13.2169 5.15865 12.5136 5.77727 12.5136 7.06111C12.5136 7.32539 12.2993 7.53958 12.0351 7.53958Z"
        fill="#597B91" />
    <path
        d="M12.0351 7.53958C11.7709 7.53958 11.5566 7.32535 11.5566 7.06111C11.5566 5.34451 12.5355 4.48353 13.3992 3.72386L13.3992 3.72386C14.1362 3.07565 14.7726 2.51582 14.7726 1.47846C14.7726 1.21423 14.9869 1 15.2511 1C15.5153 1 15.7296 1.21423 15.7296 1.47846C15.7296 2.94843 14.8274 3.74205 14.0314 4.44224L14.0312 4.44238L14.0312 4.44239C13.2169 5.15865 12.5136 5.77727 12.5136 7.06111C12.5136 7.32539 12.2993 7.53958 12.0351 7.53958Z"
        stroke="white" />
    <path
        d="M22.8465 10.003C22.8282 9.95938 22.8101 9.91606 22.7921 9.87299C22.762 9.80087 22.7322 9.72948 22.7024 9.65887C22.2171 7.88333 20.5927 6.57812 18.6632 6.57812H5.3259C3.49012 6.57812 1.93037 7.75968 1.36522 9.40367C1.2988 9.55555 1.23354 9.71179 1.16679 9.87158C1.14861 9.91511 1.13031 9.95891 1.11186 10.003C-0.0447952 12.758 -0.0208187 15.2309 0.00911595 18.3184C0.0140488 18.8272 0.0191435 19.3527 0.0191435 19.8988C0.0191435 22.3451 3.01946 22.9307 4.26714 21.0161C4.38711 20.832 4.61664 20.5018 4.91734 20.0694C5.49476 19.2389 6.33463 18.031 7.16512 16.7547C7.54326 16.9571 7.97516 17.0722 8.43406 17.0722C9.66375 17.0722 10.2175 16.5312 10.7105 16.0494C11.1061 15.6629 11.4626 15.3146 12.0979 15.3146C12.1374 15.3146 12.1715 15.3113 12.2019 15.3059C12.2323 15.3113 12.2663 15.3146 12.3059 15.3146C12.9413 15.3146 13.2978 15.6629 13.6934 16.0495C14.1864 16.5312 14.7401 17.0722 15.9697 17.0722C16.3037 17.0722 16.6232 17.011 16.9183 16.8999C17.7069 18.0959 18.4941 19.221 19.0512 20.0173C19.3717 20.4754 19.6161 20.8246 19.7408 21.0161C20.9885 22.9307 23.9888 22.2807 23.9888 19.8988C23.9888 19.4364 23.9918 18.9887 23.9947 18.5535C24.0157 15.3556 24.0323 12.8275 22.8465 10.003Z"
        fill="#2B3B47" />
    <path
        d="M22.8465 10.003C22.8282 9.95938 22.8101 9.91606 22.7921 9.87299C22.762 9.80087 22.7322 9.72948 22.7024 9.65887C22.2171 7.88333 20.5927 6.57812 18.6632 6.57812H5.3259C3.49012 6.57812 1.93037 7.75968 1.36522 9.40367C1.2988 9.55555 1.23354 9.71179 1.16679 9.87158C1.14861 9.91511 1.13031 9.95891 1.11186 10.003C-0.0447952 12.758 -0.0208187 15.2309 0.00911595 18.3184C0.0140488 18.8272 0.0191435 19.3527 0.0191435 19.8988C0.0191435 22.3451 3.01946 22.9307 4.26714 21.0161C4.38711 20.832 4.61664 20.5018 4.91734 20.0694C5.49476 19.2389 6.33463 18.031 7.16512 16.7547C7.54326 16.9571 7.97516 17.0722 8.43406 17.0722C9.66375 17.0722 10.2175 16.5312 10.7105 16.0494C11.1061 15.6629 11.4626 15.3146 12.0979 15.3146C12.1374 15.3146 12.1715 15.3113 12.2019 15.3059C12.2323 15.3113 12.2663 15.3146 12.3059 15.3146C12.9413 15.3146 13.2978 15.6629 13.6934 16.0495C14.1864 16.5312 14.7401 17.0722 15.9697 17.0722C16.3037 17.0722 16.6232 17.011 16.9183 16.8999C17.7069 18.0959 18.4941 19.221 19.0512 20.0173C19.3717 20.4754 19.6161 20.8246 19.7408 21.0161C20.9885 22.9307 23.9888 22.2807 23.9888 19.8988C23.9888 19.4364 23.9918 18.9887 23.9947 18.5535C24.0157 15.3556 24.0323 12.8275 22.8465 10.003Z"
        stroke="white" />
    <path
        d="M22.078 10.9C22.078 12.821 20.5208 14.3782 18.5998 14.3782C16.6789 14.3782 15.1217 12.821 15.1217 10.9C15.1217 8.97908 16.6789 7.42188 18.5998 7.42188C20.5208 7.42188 22.078 8.97908 22.078 10.9ZM5.57387 7.42188C3.65296 7.42188 2.0957 8.97908 2.0957 10.9C2.0957 12.821 3.65291 14.3782 5.57387 14.3782C7.49483 14.3782 9.05204 12.821 9.05204 10.9C9.05204 8.97908 7.49478 7.42188 5.57387 7.42188Z"
        fill="#132028" />
    <path
        d="M18.6631 13.5909C19.1739 13.5909 19.588 13.1768 19.588 12.6661C19.588 12.1553 19.1739 11.7412 18.6631 11.7412C18.1524 11.7412 17.7383 12.1553 17.7383 12.6661C17.7383 13.1768 18.1524 13.5909 18.6631 13.5909Z"
        fill="#00B1FF" />
    <path
        d="M18.6631 10.127C19.1739 10.127 19.588 9.71298 19.588 9.2022C19.588 8.69141 19.1739 8.27734 18.6631 8.27734C18.1524 8.27734 17.7383 8.69141 17.7383 9.2022C17.7383 9.71298 18.1524 10.127 18.6631 10.127Z"
        fill="#FFB636" />
    <path
        d="M16.9307 11.8595C17.4415 11.8595 17.8556 11.4454 17.8556 10.9346C17.8556 10.4238 17.4415 10.0098 16.9307 10.0098C16.4199 10.0098 16.0059 10.4238 16.0059 10.9346C16.0059 11.4454 16.4199 11.8595 16.9307 11.8595Z"
        fill="#FF473E" />
    <path
        d="M20.3956 11.8595C20.9063 11.8595 21.3204 11.4454 21.3204 10.9346C21.3204 10.4238 20.9063 10.0098 20.3956 10.0098C19.8848 10.0098 19.4707 10.4238 19.4707 10.9346C19.4707 11.4454 19.8848 11.8595 20.3956 11.8595Z"
        fill="#00B89C" />
    <path
        d="M11.2299 12.5214H10.0732C9.87333 12.5214 9.7113 12.3594 9.7113 12.1596C9.7113 11.9597 9.87333 11.7977 10.0732 11.7977H11.2299C11.4298 11.7977 11.5918 11.9597 11.5918 12.1596C11.5918 12.3594 11.4298 12.5214 11.2299 12.5214ZM14.5865 12.1596C14.5865 11.9597 14.4245 11.7977 14.2247 11.7977H13.0679C12.868 11.7977 12.706 11.9597 12.706 12.1596C12.706 12.3594 12.868 12.5214 13.0679 12.5214H14.2247C14.4245 12.5214 14.5865 12.3594 14.5865 12.1596ZM8.44217 12.7689C7.55367 12.7689 6.83336 13.4892 6.83336 14.3777C6.83336 15.2662 7.55367 15.9865 8.44217 15.9865C9.33066 15.9865 10.051 15.2662 10.051 14.3777C10.0509 13.4892 9.33066 12.7689 8.44217 12.7689ZM15.6267 12.7689C14.7382 12.7689 14.0179 13.4892 14.0179 14.3777C14.0179 15.2662 14.7382 15.9865 15.6267 15.9865C16.5152 15.9865 17.2355 15.2662 17.2355 14.3777C17.2355 13.4892 16.5152 12.7689 15.6267 12.7689ZM4.2698 10.0656H3.01628C2.87029 10.0656 2.75195 10.2258 2.75195 10.4235V11.3032C2.75195 11.5008 2.87029 11.661 3.01628 11.661H4.2698C4.33385 11.661 4.39575 11.6295 4.44396 11.5724L4.81505 11.1325C4.93531 10.99 4.93531 10.7366 4.81505 10.5941L4.44396 10.1543C4.3957 10.0971 4.33385 10.0656 4.2698 10.0656ZM6.3708 9.65065V8.39714C6.3708 8.25115 6.2106 8.13281 6.01297 8.13281H5.13327C4.93564 8.13281 4.77544 8.25115 4.77544 8.39714V9.65065C4.77544 9.71471 4.80696 9.77661 4.86405 9.82482L5.30391 10.1959C5.44646 10.3162 5.69978 10.3162 5.84229 10.1959L6.28214 9.82482C6.33928 9.77661 6.3708 9.71471 6.3708 9.65065ZM6.87645 11.7335H8.12996C8.27595 11.7335 8.39429 11.5734 8.39429 11.3757V10.496C8.39429 10.2984 8.27595 10.1382 8.12996 10.1382H6.87645C6.81239 10.1382 6.75049 10.1697 6.70228 10.2268L6.33115 10.6667C6.21089 10.8092 6.21089 11.0625 6.33115 11.205L6.70228 11.6449C6.75049 11.702 6.81239 11.7335 6.87645 11.7335ZM4.77544 12.1485V13.402C4.77544 13.548 4.93564 13.6664 5.13327 13.6664H6.01297C6.2106 13.6664 6.3708 13.548 6.3708 13.402V12.1485C6.3708 12.0845 6.33928 12.0226 6.28219 11.9744L5.84234 11.6033C5.69978 11.483 5.44646 11.483 5.30395 11.6033L4.8641 11.9744C4.80691 12.0226 4.77544 12.0845 4.77544 12.1485Z"
        fill="#597B91" />
</svg>
    