<svg width="106" height="77" viewBox="0 0 106 77" fill="none" xmlns="http://www.w3.org/2000/svg">
    <rect x="0.870117" y="0.75" width="75.5" height="75.5" rx="19.25" stroke="#F2C94C"
        stroke-width="1.5" />
    <path d="M39.1201 0V8" stroke="#F2C94C" stroke-width="1.5" />
    <path d="M39.1201 69V77" stroke="#F2C94C" stroke-width="1.5" />
    <path d="M69.1201 38H77.1201" stroke="#F2C94C" stroke-width="1.5" />
    <path d="M0.120117 38H8.12012" stroke="#F2C94C" stroke-width="1.5" />
    <path
        d="M99.6201 38.5C99.6201 42.0899 96.71 45 93.1201 45C89.5303 45 86.6201 42.0899 86.6201 38.5C86.6201 34.9101 89.5303 32 93.1201 32C96.71 32 99.6201 34.9101 99.6201 38.5Z"
        fill="#F2C94C" stroke="#F2C94C" />
    <path
        d="M85.6237 45.2936L85.2701 44.94L85.6237 45.2936L85.7537 45.1636C85.9484 44.9688 86.2618 44.9688 86.4566 45.1636C86.6513 45.3583 86.6513 45.6717 86.4566 45.8664L86.8101 46.22L86.4566 45.8664L86.3266 45.9964C86.2338 46.0892 86.1025 46.14 85.9801 46.14C85.8544 46.14 85.7284 46.0936 85.6193 45.992C85.4289 45.797 85.4304 45.4868 85.6237 45.2936ZM85.6365 31.7198L85.6302 31.713L85.6237 31.7064C85.4289 31.5117 85.4289 31.1983 85.6237 31.0036C85.8184 30.8088 86.1318 30.8088 86.3266 31.0036L86.4566 31.1336C86.6513 31.3283 86.6513 31.6417 86.4566 31.8364L86.4564 31.8363L86.4476 31.8456C86.3573 31.9407 86.2309 31.99 86.1101 31.99C85.9863 31.99 85.8623 31.945 85.7543 31.8467L85.6365 31.7198ZM100.477 31.8464L100.83 32.2L100.477 31.8464C100.382 31.9411 100.26 31.99 100.13 31.99C100.004 31.99 99.8784 31.9436 99.7693 31.842C99.5789 31.647 99.5804 31.3368 99.7737 31.1436L99.9037 31.0136L99.5501 30.66L99.9037 31.0136C100.098 30.8188 100.412 30.8188 100.607 31.0136C100.801 31.2083 100.801 31.5217 100.607 31.7164L100.477 31.8464ZM93.1201 48.96C92.8191 48.96 92.6201 48.7475 92.6201 48.5V48.42C92.6201 48.1461 92.8463 47.92 93.1201 47.92C93.394 47.92 93.6201 48.1461 93.6201 48.42C93.6201 48.7195 93.369 48.96 93.1201 48.96ZM100.26 46.14C100.134 46.14 100.008 46.0934 99.8985 45.9913L99.7737 45.8664C99.5789 45.6717 99.5789 45.3583 99.7737 45.1636C99.9684 44.9688 100.282 44.9688 100.477 45.1636L100.607 45.2936C100.801 45.4883 100.801 45.8017 100.607 45.9964C100.512 46.0911 100.39 46.14 100.26 46.14ZM103.12 39H103.04C102.766 39 102.54 38.7739 102.54 38.5C102.54 38.2261 102.766 38 103.04 38C103.34 38 103.58 38.2511 103.58 38.5C103.58 38.801 103.368 39 103.12 39ZM83.2001 39H83.1201C82.8463 39 82.6201 38.7739 82.6201 38.5C82.6201 38.2261 82.8463 38 83.1201 38C83.4196 38 83.6601 38.2511 83.6601 38.5C83.6601 38.801 83.4476 39 83.2001 39ZM93.1201 29.04C92.8191 29.04 92.6201 28.8275 92.6201 28.58V28.5C92.6201 28.2261 92.8463 28 93.1201 28C93.394 28 93.6201 28.2261 93.6201 28.5C93.6201 28.7995 93.369 29.04 93.1201 29.04Z"
        fill="#F2C94C" stroke="#F2C94C" />
</svg>
    