<svg width="40" height="40" viewBox="0 0 40 40" fill="none" xmlns="http://www.w3.org/2000/svg">
    <path
        d="M34.1472 34.1371C37.6555 30.6263 39.733 25.9364 39.976 20.9791C40.219 16.0218 38.61 11.1512 35.4618 7.31418C32.3137 3.47712 27.8513 0.947714 22.942 0.217622C18.0327 -0.51247 13.0274 0.608923 8.89887 3.36382C4.77037 6.11871 1.81371 10.3103 0.603596 15.1238C-0.606517 19.9372 0.0163824 25.0287 2.35121 29.4085C4.68605 33.7883 8.56599 37.1434 13.2369 38.8218C17.9077 40.5002 23.0358 40.3818 27.6243 38.4897C30.0646 37.4838 32.2816 36.0044 34.1472 34.1371V34.1371ZM17.2386 33.716C13.9456 33.0695 10.9945 31.2614 8.92296 28.6212C6.85143 25.9811 5.79738 22.6845 5.95288 19.3322C6.10838 15.98 7.46308 12.7952 9.77013 10.3581C12.0772 7.92103 15.183 6.39392 18.5217 6.05504C21.8604 5.71617 25.2098 6.58807 27.9595 8.51188C30.7091 10.4357 32.6761 13.2834 33.502 16.536C34.3279 19.7887 33.9578 23.2298 32.459 26.2323C30.9602 29.2349 28.4325 31.5991 25.3366 32.8941C22.7809 33.9634 19.9652 34.2494 17.2467 33.716H17.2386Z"
        fill="white" />
</svg>
    