<svg width="134" height="24" viewBox="0 0 134 24" fill="none" xmlns="http://www.w3.org/2000/svg">
    <g clip-path="url(#clip0_750_41311)">
        <path fill-rule="evenodd" clip-rule="evenodd"
            d="M98.4513 0.000639915C98.2776 -0.00238698 98.1049 0.0283208 97.9428 0.0910614C97.7812 0.155038 97.6338 0.250091 97.5088 0.370836C97.3276 0.553162 97.2051 0.785477 97.1569 1.03795C97.1087 1.29043 97.1371 1.55154 97.2384 1.78777C97.3397 2.02399 97.5093 2.22455 97.7254 2.36368C97.9416 2.50282 98.1943 2.57418 98.4513 2.56861C98.627 2.57868 98.8028 2.54965 98.966 2.48361C99.1291 2.41757 99.2756 2.31617 99.3949 2.18671C99.5168 2.06553 99.6127 1.92074 99.6768 1.7612C99.7403 1.60088 99.7707 1.42936 99.7661 1.25697C99.77 1.08902 99.7392 0.922081 99.6757 0.766563C99.6097 0.612036 99.5119 0.473193 99.3885 0.359135C99.2659 0.241612 99.1213 0.149431 98.963 0.0878701C98.8 0.0248314 98.626 -0.00483171 98.4513 0.000639915ZM87.1529 5.39934C88.146 5.37621 89.1303 5.58913 90.0251 6.02059C90.8342 6.44877 91.4958 7.11037 91.9239 7.91944C92.4212 8.91088 92.6594 10.012 92.6165 11.1204V18.8732H90.8463V11.2991C90.9292 10.1385 90.5516 8.99197 89.7953 8.10773C89.4031 7.73157 88.9371 7.44083 88.4268 7.25389C87.9165 7.06694 87.373 6.98785 86.8305 7.0216C85.9675 7.00062 85.1131 7.19784 84.3466 7.59498C83.6518 7.969 83.0858 8.54357 82.7222 9.24385C82.3206 10.0556 82.1238 10.9533 82.1488 11.8586V18.8711H80.333V0.000639915H82.1488V7.83646C82.5663 7.169 83.1422 6.61502 83.8254 6.22377C84.84 5.65432 85.9897 5.36948 87.1529 5.39934ZM74.4332 17.5105C74.1196 17.5303 73.8053 17.4836 73.5109 17.3736C73.2165 17.2637 72.9486 17.0928 72.7248 16.8722C72.2961 16.3747 72.0803 15.7286 72.1237 15.0734V7.0833H76.1842V5.56635H72.1237V2.61648H70.3249V5.56635H67.9356V7.0716H70.3249V15.1212C70.2763 15.6457 70.3443 16.1744 70.524 16.6694C70.7036 17.1645 70.9906 17.6138 71.3642 17.9849C71.7367 18.3569 72.1867 18.642 72.6821 18.82C73.1775 18.998 73.706 19.0645 74.23 19.0147C74.7521 19.0189 75.2717 18.9424 75.7704 18.7881C76.248 18.6469 76.6886 18.4021 77.0608 18.0711L76.4278 16.7818C75.8763 17.2635 75.1654 17.5232 74.4332 17.5105ZM9.92544 6.24717C8.9067 5.67061 7.75239 5.3768 6.58197 5.39615C5.40766 5.37919 4.25108 5.68379 3.23744 6.27696C2.24217 6.84245 1.41758 7.66557 0.850311 8.65983C0.272048 9.73832 -0.0209016 10.9467 -0.000715103 12.1703C-0.0241414 13.4039 0.285274 14.621 0.89499 15.6936C1.47897 16.7027 2.33098 17.5304 3.35658 18.0849C4.48237 18.686 5.74443 18.9857 7.02025 18.9551C8.02717 18.9643 9.02589 18.7734 9.95842 18.3934C10.8205 18.0417 11.5832 17.484 12.1796 16.769L11.169 15.5755C10.6742 16.1567 10.0476 16.6112 9.34142 16.901C8.62014 17.1897 7.84926 17.3342 7.07238 17.3265C6.1131 17.3459 5.1643 17.1242 4.31292 16.6818C3.52728 16.2653 2.87338 15.6379 2.42471 14.8702C2.07463 14.2096 1.87484 13.4798 1.83963 12.7331H13.0551C13.0487 12.6374 13.0487 12.5415 13.0551 12.4458C13.0604 12.3544 13.0604 12.2628 13.0551 12.1714C13.0878 10.9252 12.7999 9.69152 12.219 8.58856C11.683 7.61301 10.8897 6.80317 9.92544 6.24717ZM2.41301 9.36193C2.80048 8.61828 3.39349 8.00163 4.12144 7.58541C4.87719 7.1702 5.72553 6.95251 6.58782 6.95251C7.45012 6.95251 8.29846 7.1702 9.0542 7.58541C9.76894 8.00847 10.3534 8.62016 10.7435 9.35342C11.0895 9.98199 11.2932 10.6789 11.3403 11.3948H1.78006C1.85395 10.6819 2.06912 9.9908 2.41301 9.36193ZM20.9016 16.8978L15.9018 5.51529H14.0104L19.9463 18.8668H21.7973L27.7459 5.51954H25.9662L20.9016 16.8978ZM35.0913 5.39934C36.2618 5.37999 37.4161 5.6738 38.4348 6.25036C39.3696 6.79816 40.1409 7.58598 40.6688 8.53218C41.2497 9.63514 41.5376 10.8688 41.5049 12.115C41.5102 12.2064 41.5102 12.298 41.5049 12.3895C41.4985 12.4847 41.4985 12.5803 41.5049 12.6756H30.2894C30.3342 13.4477 30.5547 14.1994 30.9341 14.8734C31.3839 15.6409 32.037 16.2693 32.8212 16.6893C33.6727 17.1316 34.6214 17.3532 35.5807 17.3339C36.3615 17.3429 37.1364 17.1983 37.8614 16.9084C38.5648 16.6154 39.1878 16.1584 39.6784 15.5755L40.6932 16.769C40.0968 17.484 39.3341 18.0417 38.472 18.3934C37.5382 18.7741 36.538 18.965 35.5296 18.9551C34.2525 18.9856 32.9893 18.6851 31.8628 18.0828C30.8368 17.5264 29.9821 16.7007 29.3905 15.6946C28.7912 14.6185 28.4869 13.403 28.5087 12.1714C28.4885 10.9478 28.7814 9.73939 29.3597 8.66089C29.9268 7.66624 30.7514 6.84274 31.7468 6.27696C32.7616 5.68696 33.9176 5.38362 35.0913 5.39934ZM32.6308 7.58541C31.9029 8.00163 31.3099 8.61828 30.9224 9.36193C30.5738 9.98764 30.3583 10.6787 30.2894 11.3916H39.8443C39.7984 10.6772 39.5965 9.98146 39.2529 9.35342C38.8628 8.62016 38.2783 8.00847 37.5636 7.58541C36.8078 7.1702 35.9595 6.95251 35.0972 6.95251C34.2349 6.95251 33.3866 7.1702 32.6308 7.58541ZM46.9983 8.13432V5.56741H45.2664V18.9189H47.0749V12.1107C46.9923 10.7861 47.4176 9.47982 48.2642 8.45771C48.6926 8.02113 49.2094 7.68133 49.7801 7.46114C50.3507 7.24096 50.9619 7.1455 51.5725 7.18117H52.0034V5.42593C50.8564 5.38402 49.7203 5.66015 48.7205 6.22377C47.9688 6.67469 47.3691 7.34002 46.9983 8.13432ZM55.2394 5.56635L60.2796 16.8765L65.3155 5.56635H67.0952L60.4115 20.5316C60.1181 21.2722 59.7154 21.9646 59.2169 22.5858C58.8185 23.0577 58.3155 23.43 57.7478 23.673C57.1876 23.8867 56.592 23.9921 55.9925 23.9836C55.3823 23.9879 54.7759 23.8868 54.2001 23.6847C53.6526 23.4898 53.1552 23.1759 52.7438 22.7656L53.5799 21.4156C53.9025 21.7303 54.2785 21.985 54.6905 22.1677C55.108 22.3505 55.5603 22.4401 56.016 22.4305C56.5696 22.4438 57.1118 22.2716 57.5563 21.9412C58.0799 21.4566 58.4881 20.8608 58.7509 20.1976L59.3243 18.8955L53.3522 5.56635H55.2394ZM97.5322 5.51954H99.3353V18.8711H97.5322V5.51954ZM114.11 6.02059C113.215 5.58913 112.231 5.37621 111.238 5.39934C110.077 5.36913 108.93 5.65404 107.918 6.22377C107.169 6.62872 106.542 7.22667 106.102 7.95561V5.56635H104.376V18.9189H106.184V11.9086C106.159 11.0029 106.355 10.1048 106.757 9.29278C107.121 8.59258 107.687 8.01829 108.382 7.64498C109.148 7.24771 110.003 7.05048 110.866 7.0716C111.407 7.03863 111.95 7.11821 112.459 7.30532C112.968 7.49244 113.433 7.78304 113.824 8.15879C114.201 8.59517 114.488 9.1018 114.668 9.6495C114.849 10.1972 114.919 10.7752 114.875 11.3501V18.9221H116.683V11.1704C116.726 10.0619 116.488 8.96076 115.99 7.96944C115.578 7.14224 114.922 6.46181 114.11 6.02059ZM132.217 8.09922V5.56741H133.949V17.2126C134.028 18.1288 133.919 19.0515 133.63 19.9243C133.34 20.7971 132.876 21.6017 132.265 22.289C130.867 23.5007 129.046 24.1103 127.2 23.9847C126.009 23.9879 124.825 23.8066 123.69 23.4475C122.682 23.1557 121.755 22.6367 120.979 21.9305L121.886 20.5561C122.587 21.1525 123.398 21.6035 124.275 21.8826C125.217 22.2208 126.212 22.3901 127.213 22.3826C128.568 22.4949 129.912 22.0657 130.951 21.1891C131.385 20.6866 131.714 20.1024 131.919 19.4708C132.124 18.8393 132.201 18.1732 132.144 17.5116V15.8095C131.634 16.5762 130.946 17.2077 130.138 17.6499C129.152 18.1689 128.051 18.4319 126.937 18.4147C125.74 18.4322 124.557 18.1487 123.498 17.5903C122.507 17.0536 121.681 16.2565 121.109 15.2851C120.511 14.2605 120.205 13.0916 120.225 11.9054C120.201 10.7221 120.507 9.55556 121.109 8.53643C121.678 7.56892 122.505 6.77913 123.498 6.25568C124.56 5.70494 125.741 5.42571 126.937 5.44295C128.049 5.4241 129.149 5.67987 130.138 6.1876C130.988 6.63014 131.705 7.28969 132.217 8.09922ZM127.111 16.8222C128.023 16.835 128.923 16.6153 129.727 16.184V16.1361C130.47 15.7531 131.095 15.1754 131.535 14.4649C131.984 13.6902 132.211 12.807 132.191 11.9118C132.22 11.0421 132.005 10.1816 131.571 9.42782C131.136 8.67406 130.498 8.05719 129.731 7.64711C128.919 7.23864 128.024 7.02588 127.115 7.02588C126.207 7.02588 125.311 7.23864 124.5 7.64711C123.751 8.04434 123.126 8.6393 122.692 9.36725C122.25 10.1412 122.027 11.0208 122.047 11.9118C122.029 12.8052 122.252 13.6869 122.692 14.4649C123.123 15.1949 123.749 15.7902 124.5 16.184C125.307 16.6122 126.208 16.8303 127.121 16.818L127.111 16.8222Z"
            fill="white" />
    </g>
    <defs>
        <clipPath id="clip0_750_41311">
            <rect width="133.974" height="24" fill="white" />
        </clipPath>
    </defs>
</svg>
    