<svg width="16" height="16" viewBox="0 0 16 16" fill="none" xmlns="http://www.w3.org/2000/svg">
    <path
        d="M9.80277 3.17608L9.80291 3.17632L14.0694 10.8561C14.5532 11.728 14.559 12.4793 14.2419 13.0208C13.9257 13.5607 13.2712 13.9202 12.2667 13.9202H3.73332C2.72876 13.9202 2.07426 13.5607 1.75812 13.0208C1.44133 12.4799 1.4463 11.7353 1.93082 10.8556C1.93096 10.8553 1.9311 10.855 1.93124 10.8548L6.19706 3.17632L6.1972 3.17608C6.71789 2.23761 7.37132 1.8335 7.99998 1.8335C8.62865 1.8335 9.28208 2.23761 9.80277 3.17608ZM8.78567 12.1973L8.81258 12.1757L8.83629 12.1507C9.0383 11.9375 9.16665 11.6432 9.16665 11.3335C9.16665 11.0238 9.0383 10.7295 8.83629 10.5163L8.81258 10.4913L8.78567 10.4697L8.73567 10.4297L8.68567 10.3897L8.66872 10.3762L8.65067 10.3641C8.58817 10.3225 8.51974 10.2859 8.44541 10.2579C8.43461 10.253 8.42368 10.2482 8.41261 10.2437C8.75809 10.0856 8.99998 9.73612 8.99998 9.3335V6.00016C8.99998 5.45069 8.54946 5.00016 7.99998 5.00016C7.45051 5.00016 6.99998 5.45069 6.99998 6.00016V9.3335C6.99998 9.7361 7.24186 10.0856 7.5873 10.2436C7.57623 10.2482 7.56528 10.253 7.55447 10.2579C7.48017 10.2859 7.41177 10.3225 7.3493 10.3641L7.33125 10.3762L7.3143 10.3897L7.2643 10.4297L7.2143 10.4697L7.18738 10.4913L7.16367 10.5163C6.96167 10.7295 6.83332 11.0238 6.83332 11.3335C6.83332 11.6432 6.96167 11.9375 7.16367 12.1507L7.18738 12.1757L7.2143 12.1973L7.2643 12.2373L7.3143 12.2773L7.33125 12.2908L7.3493 12.3029C7.41177 12.3445 7.48017 12.3811 7.55447 12.4091C7.62581 12.4417 7.70267 12.4664 7.78445 12.48L7.78443 12.4802L7.79594 12.4818C7.79845 12.4822 7.80118 12.4826 7.80413 12.483C7.84406 12.4888 7.92289 12.5002 7.99998 12.5002C8.08175 12.5002 8.16103 12.4879 8.20402 12.4808C8.29278 12.4675 8.37211 12.4425 8.44541 12.4091C8.51974 12.3811 8.58817 12.3445 8.65067 12.3029L8.66872 12.2908L8.68567 12.2773L8.73567 12.2373L8.78567 12.1973Z"
        fill="#DD4E68" stroke="#DD4E68" />
</svg>
    