<svg width="41" height="40" viewBox="0 0 41 40" fill="none" xmlns="http://www.w3.org/2000/svg">
    <path
        d="M14.8837 18.3668C13.9242 18.3668 13.1337 19.1574 13.1337 20.1168C13.1337 21.0675 13.9003 21.8702 14.8892 21.8502H23.5004V35.2335C23.5004 35.7536 23.078 36.1668 22.5671 36.1668C17.7781 36.1668 13.7429 34.498 10.906 31.6612C8.06917 28.8243 6.40039 24.7891 6.40039 20.0002C6.40039 15.2112 8.06917 11.176 10.906 8.33913C13.7429 5.50228 17.7781 3.8335 22.5671 3.8335C23.0875 3.8335 23.5036 4.24087 23.5171 4.77253V18.3668H14.8837Z"
        fill="currentColor" stroke="currentColor" />
    <path
        d="M34.3792 19.586L34.3798 19.5867C34.6703 19.8772 34.6613 20.3342 34.3755 20.6009L34.3689 20.6071L34.3625 20.6135L29.6298 25.3629C29.6297 25.363 29.6296 25.363 29.6296 25.3631C29.4783 25.5142 29.2911 25.5831 29.1 25.5831C28.9088 25.5831 28.7215 25.5142 28.5702 25.3629C28.2821 25.0748 28.2821 24.5914 28.5702 24.3033L31.1702 21.7033L32.0238 20.8498H30.8167H24.5V19.3498H30.8333H32.0404L31.1869 18.4962L28.5869 15.8962C28.2988 15.6081 28.2988 15.1247 28.5869 14.8367C28.8749 14.5487 29.3581 14.5486 29.6462 14.8364C29.6463 14.8365 29.6464 14.8366 29.6464 14.8367L34.3792 19.586Z"
        fill="currentColor" stroke="currentColor" />
</svg>
    