<svg width="20" height="20" viewBox="0 0 20 20" fill="none" xmlns="http://www.w3.org/2000/svg">
    <path
        d="M9.99461 2.5415C8.27025 2.54177 6.59932 3.13991 5.26652 4.23401C3.93372 5.32811 3.0215 6.85049 2.68529 8.54176C2.34909 10.233 2.60969 11.9885 3.42271 13.5092C4.23572 15.0299 5.55084 16.2216 7.14399 16.8814C8.73715 17.5411 10.5098 17.6281 12.1599 17.1274C13.8099 16.6267 15.2354 15.5694 16.1933 14.1356C17.1512 12.7018 17.5824 10.9803 17.4133 9.2642C17.2443 7.54815 16.4854 5.9438 15.2661 4.72451C14.5739 4.03223 13.752 3.48312 12.8475 3.10855C11.943 2.73399 10.9736 2.5413 9.99461 2.5415ZM16.706 11.3562C16.3798 12.9736 15.4832 14.4198 14.1797 15.4313C12.8762 16.4428 11.2526 16.9521 9.60493 16.8665C7.95724 16.7808 6.39521 16.1059 5.2036 14.9647C4.01199 13.8236 3.27017 12.2922 3.11339 10.6497C2.95661 9.0073 3.39531 7.36321 4.34951 6.01721C5.3037 4.67122 6.70984 3.71296 8.31156 3.31714C9.91329 2.92133 11.6039 3.11432 13.0752 3.86093C14.5466 4.60754 15.7006 5.85804 16.3269 7.38446C16.8436 8.64166 16.9756 10.024 16.706 11.3562Z"
        fill="currentColor" />
    <path
        d="M17.084 2.94186C15.4504 1.30232 13.2987 0.28018 10.9958 0.0497167C8.69283 -0.180747 6.38126 0.394741 4.45519 1.67805C2.52912 2.96137 1.10783 4.87304 0.433654 7.08711C-0.240519 9.30118 -0.125825 11.6805 0.758178 13.8195C1.64218 15.9585 3.24075 17.7246 5.28133 18.8167C7.3219 19.9088 9.67811 20.2593 11.9482 19.8084C14.2183 19.3575 16.2617 18.1331 17.73 16.3441C19.1983 14.555 20.0006 12.312 20 9.99759C19.9995 7.35257 18.9509 4.81551 17.084 2.94186V2.94186ZM16.5114 16.2218C14.9815 17.7746 12.9443 18.7257 10.7715 18.9017C8.59875 19.0777 6.4351 18.4668 4.67519 17.1804C2.91529 15.894 1.67641 14.0179 1.18451 11.8942C0.692608 9.77055 0.980465 7.54081 1.99558 5.61168C3.01069 3.68255 4.68542 2.18258 6.71431 1.38535C8.74321 0.58811 10.9911 0.546728 13.0479 1.26875C15.1048 1.99077 16.8336 3.42808 17.919 5.31854C19.0045 7.209 19.3742 9.42664 18.9608 11.567C18.6211 13.3261 17.769 14.9456 16.5114 16.2218V16.2218Z"
        fill="currentColor" />
    <path
        d="M10.0004 5.0918C8.86455 5.09184 7.76386 5.48572 6.88587 6.20632C6.00788 6.92692 5.40692 7.92966 5.18537 9.04368C4.96382 10.1577 5.13539 11.3141 5.67086 12.3158C6.20633 13.3175 7.07255 14.1025 8.12194 14.5372C9.17134 14.9718 10.339 15.0291 11.4259 14.6994C12.5128 14.3696 13.4518 13.6732 14.0828 12.7287C14.7138 11.7843 14.9978 10.6503 14.8864 9.51994C14.7751 8.38958 14.2752 7.33279 13.472 6.52966C13.0162 6.07364 12.475 5.71193 11.8793 5.46522C11.2836 5.2185 10.6451 5.09161 10.0004 5.0918ZM14.4592 10.8906C14.247 11.9591 13.6578 12.9158 12.7992 13.5862C11.9405 14.2566 10.8695 14.5961 9.78145 14.5428C8.69337 14.4895 7.66068 14.047 6.87166 13.2959C6.08263 12.5447 5.58983 11.5351 5.48309 10.4509C5.37634 9.36678 5.66276 8.28038 6.29014 7.38979C6.91751 6.4992 7.84406 5.86374 8.90084 5.59925C9.95763 5.33476 11.0743 5.45886 12.0472 5.94893C13.0201 6.439 13.7845 7.2624 14.201 8.26901C14.5445 9.09813 14.6343 10.0105 14.4592 10.8906Z"
        fill="currentColor" />
    <path
        d="M10.0283 7.60034C9.47354 7.59241 8.9332 7.77739 8.49965 8.12366C8.0661 8.46992 7.76623 8.956 7.6513 9.49883C7.53637 10.0417 7.61351 10.6075 7.86952 11.0998C8.12554 11.5921 8.54455 11.9802 9.05496 12.1978C9.56538 12.4154 10.1355 12.449 10.668 12.2929C11.2004 12.1367 11.6621 11.8006 11.9742 11.3418C12.2863 10.883 12.4294 10.3301 12.379 9.77754C12.3287 9.22497 12.088 8.70703 11.6981 8.31221C11.2566 7.86491 10.6568 7.60921 10.0283 7.60034ZM12.1972 10.4236C12.0933 10.9427 11.8063 11.4072 11.3886 11.7324C10.9708 12.0576 10.4502 12.2219 9.92145 12.1954C9.39272 12.1689 8.89111 11.9534 8.50801 11.588C8.1249 11.2226 7.88581 10.7318 7.83428 10.2049C7.78276 9.67803 7.92223 9.15017 8.2273 8.71751C8.53236 8.28485 8.9827 7.97618 9.49628 7.84774C10.0099 7.71931 10.5525 7.77965 11.0253 8.01778C11.4981 8.25591 11.8697 8.65597 12.0722 9.14509C12.2418 9.54954 12.2871 9.99535 12.2023 10.4257L12.1972 10.4236Z"
        fill="currentColor" />
</svg>
    