<svg width="20" height="20" viewBox="0 0 20 20" fill="none" xmlns="http://www.w3.org/2000/svg">
    <path
        d="M11.666 15.8333C11.666 16.75 12.416 17.5 13.3327 17.5C14.2493 17.5 14.9993 16.75 14.9993 15.8333C14.9993 14.9167 14.2493 14.1667 13.3327 14.1667C12.416 14.1667 11.666 14.9167 11.666 15.8333Z"
        stroke="white" stroke-width="1.5" />
    <path
        d="M5.83301 15.8333C5.83301 16.75 6.58301 17.5 7.49967 17.5C8.41634 17.5 9.16634 16.75 9.16634 15.8333C9.16634 14.9167 8.41634 14.1667 7.49967 14.1667C6.58301 14.1667 5.83301 14.9167 5.83301 15.8333Z"
        stroke="white" stroke-width="1.5" />
    <path
        d="M11.666 4.16683C11.666 5.0835 12.416 5.8335 13.3327 5.8335C14.2493 5.8335 14.9993 5.0835 14.9993 4.16683C14.9993 3.25016 14.2493 2.50016 13.3327 2.50016C12.416 2.50016 11.666 3.25016 11.666 4.16683Z"
        stroke="white" stroke-width="1.5" />
    <path
        d="M5.83301 4.16683C5.83301 5.0835 6.58301 5.8335 7.49967 5.8335C8.41634 5.8335 9.16634 5.0835 9.16634 4.16683C9.16634 3.25016 8.41634 2.50016 7.49967 2.50016C6.58301 2.50016 5.83301 3.25016 5.83301 4.16683Z"
        stroke="white" stroke-width="1.5" />
    <path
        d="M11.666 9.99984C11.666 10.9165 12.416 11.6665 13.3327 11.6665C14.2493 11.6665 14.9993 10.9165 14.9993 9.99984C14.9993 9.08317 14.2493 8.33317 13.3327 8.33317C12.416 8.33317 11.666 9.08317 11.666 9.99984Z"
        stroke="white" stroke-width="1.5" />
    <path
        d="M5.83301 9.99984C5.83301 10.9165 6.58301 11.6665 7.49967 11.6665C8.41634 11.6665 9.16634 10.9165 9.16634 9.99984C9.16634 9.08317 8.41634 8.33317 7.49967 8.33317C6.58301 8.33317 5.83301 9.08317 5.83301 9.99984Z"
        stroke="white" stroke-width="1.5" />
</svg>    