<svg width="32" height="24" viewBox="0 0 32 24" fill="none" xmlns="http://www.w3.org/2000/svg">
    <path
        d="M26.9045 1.98947C24.9353 1.06863 22.8236 0.390197 20.6158 0.00162999C20.5756 -0.00586923 20.5354 0.0128717 20.5147 0.0503545C20.2431 0.54262 19.9423 1.18482 19.7316 1.68959C17.3569 1.32727 14.9944 1.32727 12.6684 1.68959C12.4577 1.1736 12.146 0.54262 11.8732 0.0503545C11.8525 0.0141223 11.8123 -0.00461862 11.7721 0.00162999C9.56545 0.388955 7.45379 1.06739 5.48339 1.98947C5.46633 1.99696 5.45171 2.00947 5.44201 2.0257C1.43665 8.12415 0.339409 14.0727 0.877677 19.9475C0.880112 19.9762 0.895943 20.0037 0.917864 20.0212C3.56049 21.999 6.12032 23.1998 8.63262 23.9956C8.67282 24.0081 8.71543 23.9931 8.74101 23.9594C9.3353 23.1323 9.86505 22.2602 10.3193 21.3431C10.3461 21.2894 10.3205 21.2257 10.2657 21.2044C9.42542 20.8796 8.62531 20.4835 7.85566 20.0337C7.79478 19.9975 7.78991 19.9087 7.84591 19.8663C8.00787 19.7426 8.16988 19.6139 8.32453 19.4839C8.35251 19.4602 8.3915 19.4552 8.4244 19.4702C13.4807 21.8229 18.9547 21.8229 23.9513 19.4702C23.9842 19.454 24.0232 19.459 24.0524 19.4827C24.2071 19.6126 24.369 19.7426 24.5322 19.8663C24.5882 19.9087 24.5846 19.9975 24.5237 20.0337C23.754 20.4922 22.9539 20.8796 22.1124 21.2032C22.0577 21.2244 22.0333 21.2894 22.0601 21.3431C22.524 22.2589 23.0538 23.131 23.6371 23.9582C23.6615 23.9931 23.7053 24.0081 23.7455 23.9956C26.27 23.1998 28.8298 21.999 31.4724 20.0212C31.4956 20.0037 31.5102 19.9775 31.5126 19.9488C32.1568 13.1568 30.4336 7.25706 26.9447 2.02694C26.9361 2.00947 26.9215 1.99696 26.9045 1.98947ZM11.0743 16.3704C9.55205 16.3704 8.29773 14.946 8.29773 13.1968C8.29773 11.4476 9.52772 10.0233 11.0743 10.0233C12.6331 10.0233 13.8753 11.4601 13.8509 13.1968C13.8509 14.946 12.6209 16.3704 11.0743 16.3704ZM21.3404 16.3704C19.8181 16.3704 18.5638 14.946 18.5638 13.1968C18.5638 11.4476 19.7937 10.0233 21.3404 10.0233C22.8991 10.0233 24.1413 11.4601 24.117 13.1968C24.117 14.946 22.8991 16.3704 21.3404 16.3704Z"
        fill="currentColor" />
</svg>
    