<svg width="20" height="20" viewBox="0 0 20 20" fill="none" xmlns="http://www.w3.org/2000/svg" >
    <path
        d="M17.5 4.98356C14.725 4.70856 11.9333 4.56689 9.15 4.56689C7.5 4.56689 5.85 4.65023 4.2 4.81689L2.5 4.98356"
        stroke="currentColor" stroke-width="1.5" stroke-linecap="round" stroke-linejoin="round" />
    <path
        d="M7.08301 4.1415L7.26634 3.04984C7.39967 2.25817 7.49967 1.6665 8.90801 1.6665H11.0913C12.4997 1.6665 12.608 2.2915 12.733 3.05817L12.9163 4.1415"
        stroke="currentColor" stroke-width="1.5" stroke-linecap="round" stroke-linejoin="round" />
    <path
        d="M15.7087 7.6167L15.167 16.0084C15.0753 17.3167 15.0003 18.3334 12.6753 18.3334H7.32533C5.00033 18.3334 4.92533 17.3167 4.83366 16.0084L4.29199 7.6167"
        stroke="currentColor" stroke-width="1.5" stroke-linecap="round" stroke-linejoin="round" />
    <path d="M8.6084 13.75H11.3834" stroke="currentColor" stroke-width="1.5" stroke-linecap="round"
        stroke-linejoin="round" />
    <path d="M7.91699 10.4165H12.0837" stroke="currentColor" stroke-width="1.5" stroke-linecap="round"
        stroke-linejoin="round" />
</svg>
    